<svg width="25" height="24" viewBox="0 0 25 24" fill="none" xmlns="http://www.w3.org/2000/svg">
<path opacity="0.4" d="M1.58398 12C1.58398 17.9371 6.39692 22.75 12.334 22.75C18.2711 22.75 23.084 17.9371 23.084 12C23.084 6.06294 18.2711 1.25 12.334 1.25C6.39692 1.25 1.58398 6.06294 1.58398 12Z" fill="#121551"/>
<path d="M17.2115 8.02038C17.4765 8.50493 17.2985 9.11257 16.814 9.37756C15.4426 10.1275 14.1548 11.6975 13.1714 13.2032C12.6921 13.9372 12.3075 14.6207 12.043 15.1204C11.911 15.3697 11.8096 15.5721 11.7419 15.7105L11.6436 15.9159C11.4891 16.2536 11.1601 16.4782 10.7893 16.4987C10.4184 16.5191 10.0667 16.3323 9.87596 16.0135C9.56524 15.494 9.07151 15.0198 8.61395 14.6581C8.39162 14.4823 8.1915 14.3437 8.04869 14.2502L7.8384 14.1187C7.35891 13.8449 7.19195 13.2344 7.4655 12.7548C7.73911 12.275 8.34983 12.1079 8.82957 12.3815L9.14461 12.5772C9.3268 12.6965 9.57668 12.8697 9.85436 13.0892C10.0666 13.257 10.3038 13.4587 10.5434 13.6911C10.8002 13.2297 11.1212 12.685 11.4969 12.1096C12.5136 10.5529 14.0257 8.62286 15.8544 7.62282C16.3389 7.35782 16.9465 7.53582 17.2115 8.02038Z" fill="#FAFAFA"/>
</svg>
