<svg xmlns="http://www.w3.org/2000/svg" width="511" height="529" fill="none"><g clip-path="url(#a)"><path fill="url(#b)" d="M7.479 305.821c.207 0 .414-.05.608-.165l162.481-93.529c.58-.335.778-1.074.442-1.653a1.203 1.203 0 0 0-1.658-.44L6.871 303.562a1.212 1.212 0 0 0 .608 2.259Z"/><path fill="url(#c)" d="M290.963 287.003c.203 0 .414-.051.603-.166l162.486-93.528a1.206 1.206 0 0 0 .442-1.653 1.207 1.207 0 0 0-1.657-.441l-162.486 93.529a1.206 1.206 0 0 0-.442 1.653c.225.39.63.606 1.054.606Z"/><path fill="url(#d)" d="M390.164 509.337c.203 0 .414-.05.603-.165l92.758-53.394c.58-.335.778-1.074.442-1.653a1.2 1.2 0 0 0-1.658-.44l-92.757 53.393a1.202 1.202 0 0 0-.442 1.653c.225.39.635.606 1.054.606Z"/><path fill="url(#e)" d="M.897 429.012a1.197 1.197 0 0 1 1.658-.44l125.605 72.299a1.211 1.211 0 1 1-1.216 2.094l-125.605-72.3a1.207 1.207 0 0 1-.442-1.653Z"/><path fill="url(#f)" d="M148.533 81.159 250.367 22.54c8.593-4.944 16.398-.978 16.426 8.866v289.712c.028 9.844-6.912 21.822-15.5 26.766l-101.835 58.619c-8.592 4.944-16.398.977-16.425-8.866V107.924c-.028-9.843 6.907-21.82 15.5-26.765Z"/><path fill="url(#g)" d="M116.501 97.64c.009-.248.018-.5.037-.753.014-.248.037-.5.06-.753a25.042 25.042 0 0 1 .193-1.543c0-.008.005-.017.005-.027v-.009A25.716 25.716 0 0 1 117.09 93c.06-.271.125-.542.189-.813.069-.275.143-.546.217-.822.06-.21.124-.427.189-.642l.013-.046c.014-.042.023-.088.037-.129.083-.266.166-.532.258-.799.088-.266.18-.528.276-.79.092-.252.189-.504.286-.757.097-.252.198-.505.304-.753a12.92 12.92 0 0 1 .267-.61c.018-.042.037-.083.055-.129.111-.252.226-.5.341-.753.129-.27.262-.546.396-.813.157-.312.318-.62.479-.927.175-.33.364-.656.552-.982.033-.06.065-.115.097-.175.037-.069.074-.138.115-.206.369-.62.751-1.235 1.152-1.832a35.518 35.518 0 0 1 1.676-2.305c.198-.248.396-.496.598-.74a40.283 40.283 0 0 1 1.207-1.373c.041-.04.083-.081.124-.127.014-.014.028-.028.042-.046a30.41 30.41 0 0 1 1.805-1.772c.23-.207.46-.41.691-.602.115-.096.234-.188.35-.284.027-.023.05-.046.078-.065.087-.069.175-.142.262-.216.226-.179.456-.349.682-.518.225-.166.451-.326.677-.478a27.317 27.317 0 0 1 1.321-.84c.051-.028.102-.06.152-.087l101.834-58.614a19.01 19.01 0 0 1 1.764-.9c.207-.096.415-.179.622-.266a21.986 21.986 0 0 1 .746-.276c.014-.004.027-.009.046-.013.152-.05.304-.101.456-.147a11.602 11.602 0 0 1 1.966-.432c.152-.018.304-.032.456-.046.023 0 .046-.004.074-.009.055-.005.11-.014.165-.018a9.835 9.835 0 0 1 1.539.014c.303.027.603.073.898.128l.018.005c.014 0 .023.004.032.009a7.594 7.594 0 0 1 2.289.863l16.541 9.586a7.66 7.66 0 0 0-2.293-.863c-.014-.005-.023-.01-.033-.01a9.25 9.25 0 0 0-2.615-.133c-.023.005-.046.005-.069.01a12.56 12.56 0 0 0-2.874.624c-.018.005-.032.01-.05.014a18.044 18.044 0 0 0-3.136 1.437L148.519 81.149a24.038 24.038 0 0 0-3.094 2.14c-.028.018-.051.041-.078.064a30.733 30.733 0 0 0-2.851 2.654c-.014.018-.032.032-.046.05-1.833 1.951-3.481 4.187-4.872 6.574-.032.055-.064.115-.097.17a37.875 37.875 0 0 0-1.828 3.6c-.005.014-.014.032-.018.046a34.008 34.008 0 0 0-1.409 3.806l-.014.045a29.353 29.353 0 0 0-.889 3.834v.009a23.44 23.44 0 0 0-.304 3.769l.824 289.713c.005 1.203.115 2.319.318 3.343.005.032.014.064.019.096.207 1.006.501 1.919.879 2.736.005.014.014.028.018.042.323.684.737 1.258 1.17 1.804.143.179.276.367.433.532.516.547 1.068 1.033 1.699 1.401l-16.541-9.586c-.631-.363-1.183-.854-1.699-1.396-.157-.165-.29-.354-.433-.533-.184-.234-.396-.431-.562-.693a9.1 9.1 0 0 1-.585-1.06c-.009-.019-.013-.033-.023-.051-.009-.014-.013-.032-.018-.046-.12-.252-.23-.514-.332-.785a13.718 13.718 0 0 1-.271-.817 9.81 9.81 0 0 1-.207-.794c-.028-.11-.047-.225-.07-.34-.004-.032-.013-.064-.018-.092a6.269 6.269 0 0 1-.064-.326 17.51 17.51 0 0 1-.111-.739c-.032-.243-.055-.496-.078-.748a16.911 16.911 0 0 1-.046-.73c-.009-.248-.019-.496-.019-.749v-.046l-.824-289.712c.014-.225.014-.46.023-.694Z"/><path fill="url(#h)" d="m153.12 105.587 92.749-53.384c7.823-4.504 14.933-.891 14.961 8.07V292.25c.023 8.966-6.295 19.874-14.119 24.378l-92.748 53.385c-7.824 4.504-14.934.89-14.962-8.071V129.966c-.023-8.962 6.295-19.875 14.119-24.379Z"/><path fill="url(#i)" d="M204.728 346.975c-4.89 2.814-8.855 9.65-8.841 15.265.013 5.62 4.006 7.869 8.896 5.055 4.905-2.824 8.869-9.66 8.856-15.275-.014-5.61-4.007-7.864-8.911-5.045Z"/><path fill="url(#j)" d="M148.53 81.159 250.364 22.54c4.642-2.672 9.012-2.667 12.093-.615-2.961-1.29-6.788-.996-10.817 1.327L149.806 81.87c-8.593 4.945-15.528 16.927-15.5 26.766v289.713c.013 4.522 1.717 7.731 4.333 9.476-3.357-1.46-5.595-4.963-5.614-10.188V107.924c-.023-9.843 6.912-21.82 15.505-26.765Z"/><path fill="url(#k)" d="M252.38 51.307c-1.856 0-3.91.616-5.936 1.786l-92.748 53.385c-7.493 4.311-13.567 14.801-13.544 23.387v232.081c.014 5.468 2.814 8.866 7.295 8.866 1.855 0 3.909-.616 5.935-1.786l92.749-53.385c7.492-4.311 13.566-14.801 13.543-23.387V60.177c-.014-5.472-2.809-8.87-7.294-8.87Zm0-1.147c4.863 0 8.432 3.663 8.45 10.013v232.081c.028 8.967-6.295 19.875-14.119 24.379l-92.748 53.384c-2.284 1.313-4.509 1.938-6.512 1.938-4.858 0-8.431-3.664-8.445-10.013V129.86c-.028-8.962 6.295-19.875 14.119-24.378l92.748-53.385c2.28-1.318 4.504-1.937 6.507-1.937Z"/><path fill="url(#l)" d="M174.988 397.467c.925-1.019 2.127-1.983 3.61-2.841l9.063-5.253 20.013-11.597 12.728-7.373 1.091-.633 12.627-7.318 9.79-5.675c7.921-4.591 20.801-4.591 28.772 0l65.75 37.844c7.966 4.586 8.012 12.024.092 16.615l-65.322 37.844c-7.92 4.591-20.8 4.591-28.771 0l-65.745-37.844c-6.47-3.728-7.709-9.338-3.698-13.769Zm7.299 13.301 62.788 35.69c7.612 4.33 19.917 4.33 27.478 0l62.384-35.69c7.561-4.33 7.519-11.345-.093-15.67l-62.788-35.695c-7.612-4.329-19.912-4.329-27.478 0l-9.353 5.353-12.06 6.901-1.041.596-12.157 6.956-19.115 10.936-8.653 4.953c-1.418.808-2.569 1.717-3.449 2.682-3.831 4.177-2.648 9.466 3.537 12.988Z"/><g opacity=".3"><path fill="url(#m)" d="M321.347 395.025 269.67 365.28c-6.263-3.609-16.389-3.609-22.615 0l-51.341 29.745c-6.226 3.604-6.189 9.453.074 13.062l51.677 29.745c6.262 3.604 16.389 3.604 22.615 0l51.34-29.745c6.231-3.614 6.194-9.458-.073-13.062Z"/><path fill="url(#n)" d="M326.059 401.88c-.005.078-.009.16-.018.238-.005.069-.019.138-.028.211a3.828 3.828 0 0 1-.037.239c-.014.069-.027.143-.046.211l-.055.235c-.019.068-.042.142-.06.211a3.614 3.614 0 0 1-.078.229c-.023.069-.051.138-.079.207a4.617 4.617 0 0 1-.101.243c-.032.069-.06.133-.097.202a2.164 2.164 0 0 1-.124.239c-.037.064-.069.128-.106.193-.055.096-.115.188-.175.284-.037.055-.074.115-.11.17a6.705 6.705 0 0 1-.226.308c-.037.046-.064.092-.101.133a9.366 9.366 0 0 1-.53.601 8.862 8.862 0 0 1-.539.519c-.073.069-.152.133-.23.202-.074.06-.147.124-.221.184-.083.064-.166.133-.253.197l-.235.179c-.088.065-.18.129-.272.189a5.563 5.563 0 0 1-.253.169c-.097.06-.193.124-.29.184-.12.078-.244.152-.369.225l-51.34 29.745c-.346.202-.709.386-1.078.565-.097.046-.193.092-.295.138a18.83 18.83 0 0 1-1.027.436l-.133.055c-.373.142-.76.271-1.147.395-.271.083-.548.161-.824.234-.207.055-.414.119-.631.17-.29.069-.589.128-.884.188-.216.041-.428.092-.645.129l-.271.041a29.046 29.046 0 0 1-1.433.193c-.432.046-.865.082-1.298.11l-.24.014c-.294.014-.584.018-.879.023-.29.004-.585.009-.875.004a35.755 35.755 0 0 1-.732-.018 24.455 24.455 0 0 1-.811-.041c-.248-.019-.492-.037-.737-.06-.267-.028-.534-.055-.796-.087a25.793 25.793 0 0 1-1.561-.248c-.295-.055-.59-.11-.88-.179-.069-.014-.138-.032-.207-.046-.41-.097-.81-.207-1.207-.322a6.925 6.925 0 0 1-.336-.105 21.292 21.292 0 0 1-.971-.331c-.092-.032-.185-.064-.277-.101-.29-.11-.571-.234-.847-.358-.138-.059-.281-.115-.414-.179a18.022 18.022 0 0 1-1.175-.61l-51.677-29.746c-3.154-1.813-4.729-4.196-4.72-6.574l-.027 5.041c-.005 2.378 1.57 4.761 4.72 6.574l51.677 29.746c.377.215.769.417 1.174.61.133.064.276.119.414.179.24.106.475.216.719.312.041.019.087.033.129.046.092.037.184.069.281.101.317.12.644.23.971.331.111.037.226.073.336.105l.226.069c.322.092.649.175.981.253.069.018.138.032.207.046l.484.11c.129.027.267.046.396.069.281.055.562.105.847.147.115.018.226.041.341.059.124.019.248.028.373.042.267.032.529.064.801.087.129.014.253.032.382.041.12.009.24.009.359.019.272.018.539.032.811.041.133.005.272.018.405.023.111.004.217-.005.327 0 .295.004.585 0 .88-.005.147-.004.29.005.437 0 .147-.004.295-.013.442-.023l.244-.013c.364-.023.728-.046 1.092-.083.069-.005.138-.018.207-.023a28.768 28.768 0 0 0 1.432-.193l.272-.041c.041-.009.087-.014.129-.023.175-.032.34-.074.515-.11.295-.06.594-.12.885-.189.211-.05.419-.11.626-.169.276-.074.552-.152.824-.235.06-.018.12-.032.175-.05a16.38 16.38 0 0 0 1.11-.399c.35-.138.691-.281 1.022-.437l.295-.137c.368-.179.732-.363 1.077-.565l51.341-29.745c.065-.037.129-.078.194-.115.06-.037.115-.074.175-.11.096-.06.193-.124.29-.184.087-.055.17-.115.253-.17.092-.064.184-.124.272-.188.083-.06.161-.119.239-.179a3.33 3.33 0 0 0 .249-.198c.074-.059.147-.119.221-.183.078-.064.156-.133.23-.202l.097-.083c.027-.027.05-.055.078-.078a13.768 13.768 0 0 0 .479-.477 9.78 9.78 0 0 0 .414-.482c.005-.01.014-.014.019-.023.032-.037.055-.078.083-.115.078-.101.152-.202.225-.308l.111-.17c.06-.091.12-.188.175-.284.014-.028.032-.051.046-.078.023-.037.037-.078.06-.115l.124-.239c.032-.069.065-.133.092-.202.037-.082.069-.161.102-.243.013-.037.032-.074.046-.11a.916.916 0 0 0 .032-.097c.027-.078.055-.156.078-.229.023-.069.042-.138.06-.211.023-.079.037-.157.055-.23.009-.041.023-.083.033-.129l.013-.082c.014-.078.028-.161.037-.239l.028-.211c.009-.083.014-.161.018-.239.005-.046.009-.092.009-.142v-.143l.028-5.04a6.468 6.468 0 0 0-.023.28Z"/></g><path fill="url(#o)" d="M321.347 389.966 269.67 360.22c-6.263-3.604-16.389-3.608-22.615 0l-51.341 29.746c-6.226 3.604-6.189 9.453.074 13.061l51.677 29.745c6.262 3.604 16.389 3.604 22.615 0l51.34-29.745c6.231-3.608 6.194-9.453-.073-13.061Z"/><path fill="url(#p)" d="M326.059 396.825c-.005.078-.009.16-.018.238-.005.069-.019.138-.028.212-.009.078-.023.16-.037.238-.014.069-.027.143-.046.212l-.055.234c-.019.068-.042.142-.06.211a3.614 3.614 0 0 1-.078.229c-.023.069-.051.138-.079.207a4.617 4.617 0 0 1-.101.243c-.032.069-.06.133-.097.202a2.164 2.164 0 0 1-.124.239c-.037.064-.069.129-.106.193-.055.096-.115.188-.175.285-.037.055-.074.114-.11.169a6.705 6.705 0 0 1-.226.308c-.037.046-.064.092-.101.133a9.366 9.366 0 0 1-.53.602 6.86 6.86 0 0 1-.364.358c-.055.055-.115.11-.175.16-.073.069-.152.133-.23.202-.074.06-.147.124-.221.184l-.253.197-.235.179c-.088.065-.18.129-.272.189a6.56 6.56 0 0 1-.253.17c-.097.064-.193.123-.29.183-.12.078-.244.152-.369.225l-51.34 29.745c-.346.202-.709.386-1.078.565-.097.046-.193.092-.295.138a18.83 18.83 0 0 1-1.027.436l-.133.055c-.373.142-.76.271-1.147.395-.271.083-.548.161-.824.234-.207.055-.414.12-.631.17-.29.069-.589.129-.884.188-.216.042-.428.092-.645.133l-.271.042a31.187 31.187 0 0 1-1.433.193 33.23 33.23 0 0 1-1.298.11l-.24.013c-.294.014-.584.019-.879.023-.29.005-.585.01-.875.005-.244-.005-.488-.009-.732-.018a24.46 24.46 0 0 1-.811-.042 34.885 34.885 0 0 1-.737-.059c-.267-.028-.534-.055-.796-.088-.24-.032-.479-.064-.714-.101a23.377 23.377 0 0 1-.847-.146c-.295-.056-.59-.111-.88-.18a3.062 3.062 0 0 0-.207-.045c-.41-.097-.81-.207-1.207-.322-.115-.032-.225-.069-.336-.105a21.292 21.292 0 0 1-.971-.331c-.092-.032-.185-.064-.277-.101-.29-.11-.571-.234-.847-.358-.138-.06-.281-.115-.414-.179a17.55 17.55 0 0 1-1.175-.611l-51.677-29.745c-3.154-1.814-4.729-4.196-4.72-6.574l-.027 5.041c-.005 2.378 1.57 4.76 4.72 6.574l51.677 29.745c.377.216.769.418 1.174.611.133.064.276.119.414.179.24.105.475.216.719.312.041.018.087.032.129.046.092.037.184.069.281.101.317.119.644.23.971.331.111.036.226.068.336.105l.226.069a22.681 22.681 0 0 0 1.188.298c.161.037.318.074.484.111.129.027.267.046.396.068.281.056.562.101.847.147.115.019.226.042.341.06.124.018.248.028.373.041.267.033.529.065.801.088.129.013.253.032.382.041.12.009.24.009.359.018.272.019.539.032.811.042.133.004.272.018.405.023.111.004.217-.005.327 0 .295.004.585 0 .88-.005.147-.005.29.005.437 0 .147-.005.295-.014.442-.023l.244-.014c.364-.023.728-.046 1.092-.082.069-.005.138-.019.207-.023a28.768 28.768 0 0 0 1.432-.193l.272-.041c.041-.01.087-.014.129-.023.175-.033.34-.074.515-.111.295-.059.594-.119.885-.188.211-.05.419-.11.626-.17.276-.073.552-.151.824-.234.06-.018.12-.032.175-.05.332-.106.654-.221.972-.345l.138-.055c.35-.138.691-.28 1.022-.436l.295-.138c.368-.179.732-.362 1.077-.564l51.341-29.746c.065-.036.129-.078.194-.114l.175-.111c.096-.059.193-.124.29-.183.087-.055.17-.115.253-.17.092-.064.184-.124.272-.188.083-.06.161-.12.239-.179.088-.065.171-.129.249-.198.074-.06.147-.119.221-.184.078-.068.156-.133.23-.202l.097-.082c.027-.028.05-.055.078-.078.124-.12.249-.239.364-.358.037-.042.078-.083.115-.12.147-.16.286-.321.414-.482.005-.009.014-.014.019-.023.032-.036.055-.078.083-.114.078-.101.152-.202.225-.308l.111-.17c.06-.092.12-.188.175-.285.014-.027.032-.05.046-.078.023-.036.037-.078.06-.114l.124-.239c.032-.069.065-.133.092-.202.037-.083.069-.161.102-.243.013-.037.032-.074.046-.111a.9.9 0 0 0 .032-.096c.027-.078.055-.156.078-.23.023-.068.042-.142.06-.211.023-.078.037-.156.055-.229.009-.042.023-.083.033-.124l.013-.088c.014-.078.028-.16.037-.238l.028-.211c.009-.083.014-.161.018-.239.005-.046.009-.097.009-.143v-.142l.028-5.041a5.306 5.306 0 0 0-.023.276Z"/><path fill="url(#q)" d="M204.002 372.676c.603-.666 1.391-1.295 2.358-1.855l5.917-3.43 13.065-7.57 8.311-4.816.714-.413 8.243-4.775 6.392-3.705c5.171-2.993 13.58-2.993 18.783 0l42.923 24.709c5.204 2.993 5.232 7.851.06 10.849l-42.642 24.704c-5.171 2.998-13.58 2.998-18.783 0l-42.919-24.704c-4.232-2.438-5.042-6.097-2.422-8.994Z"/><path fill="url(#r)" d="m314.62 376.518-.014.198a1.766 1.766 0 0 1-.023.174c-.009.064-.018.133-.032.198-.009.059-.023.114-.037.174-.013.064-.032.129-.046.193-.014.06-.032.115-.05.174-.019.065-.042.129-.065.193a2.457 2.457 0 0 1-.23.537c-.032.065-.069.133-.101.198-.028.055-.06.105-.092.16a9.015 9.015 0 0 1-.148.235c-.032.045-.06.096-.092.142-.06.087-.124.17-.189.257l-.083.11a5.728 5.728 0 0 1-.345.4l-.097.101a8.402 8.402 0 0 1-.442.431l-.193.165a7.453 7.453 0 0 1-.392.313c-.064.05-.129.096-.198.147-.073.055-.147.105-.225.16-.069.046-.138.097-.212.143-.078.05-.161.101-.244.151-.101.064-.203.124-.309.188l-42.642 24.709c-.29.166-.589.322-.898.469-.083.036-.161.078-.244.114-.276.129-.561.248-.852.363-.036.014-.073.032-.11.046a16.96 16.96 0 0 1-1.635.519c-.175.046-.345.096-.52.142-.24.06-.488.106-.732.156-.18.037-.355.078-.539.11-.074.014-.152.023-.226.037-.304.051-.612.092-.921.129-.092.009-.179.023-.267.032a30.07 30.07 0 0 1-1.077.092c-.065.004-.134.009-.198.009-.245.013-.489.013-.733.018-.244.005-.483.005-.727.005-.203 0-.406-.01-.608-.019-.226-.009-.451-.023-.672-.036-.203-.014-.41-.033-.613-.051-.221-.023-.442-.046-.663-.073l-.594-.083a19.27 19.27 0 0 1-.705-.124c-.244-.046-.488-.092-.732-.147-.06-.014-.115-.027-.175-.037-.341-.082-.672-.17-.999-.266-.092-.027-.189-.06-.281-.087a19.55 19.55 0 0 1-.806-.276 14.794 14.794 0 0 1-.23-.082c-.24-.092-.474-.198-.705-.299-.115-.05-.23-.096-.34-.151a14.93 14.93 0 0 1-.977-.505l-42.923-24.705c-2.62-1.505-3.928-3.484-3.918-5.458l-.023 18.979c-.005 1.974 1.303 3.953 3.918 5.463l42.923 24.705c.313.179.64.349.977.505.11.055.23.096.345.151.198.088.391.179.599.262a11.972 11.972 0 0 1 .336.119c.262.097.534.189.806.276.092.027.184.059.28.087.065.018.125.041.189.06.267.078.539.142.815.211.06.014.116.027.175.037.134.032.267.064.401.091.111.023.221.037.332.056.234.045.469.087.704.124.097.013.189.036.281.05.101.014.207.023.313.037.221.027.442.05.663.073.106.009.212.028.318.037.097.009.198.009.295.018.225.014.446.028.672.037.115.005.226.014.336.018.092 0 .18-.004.272 0 .244.005.483 0 .727-.004.12 0 .24.004.36 0 .124-.005.244-.014.368-.019.065-.004.134-.004.203-.009.304-.018.603-.041.907-.069.06-.004.115-.013.175-.023.092-.009.179-.023.267-.032.308-.036.617-.078.921-.128.074-.014.152-.023.226-.037.036-.005.073-.009.105-.018.143-.028.286-.065.429-.092.244-.051.492-.097.732-.156.175-.042.35-.092.52-.143.231-.064.461-.124.686-.192l.148-.042c.272-.087.543-.183.806-.284.037-.014.073-.033.115-.046a17.428 17.428 0 0 0 1.096-.478c.308-.147.608-.303.898-.468l42.642-24.704c.055-.033.11-.065.161-.097l.147-.092c.083-.05.161-.101.24-.151.073-.046.142-.097.212-.142.078-.051.151-.106.225-.157.069-.05.134-.096.198-.146.069-.056.143-.106.207-.161.06-.051.125-.101.185-.152l.193-.165c.023-.023.055-.046.078-.069.023-.023.042-.046.065-.064.106-.097.207-.198.299-.299l.097-.101c.12-.133.235-.266.345-.399l.014-.018.069-.097c.065-.082.129-.17.189-.257.032-.046.06-.096.092-.142.051-.078.101-.156.147-.234l.042-.065c.018-.032.032-.064.05-.096.037-.064.069-.133.102-.197.027-.055.055-.111.078-.166.032-.069.06-.133.083-.202.014-.032.028-.059.037-.091l.027-.083c.023-.064.046-.129.065-.193.018-.06.037-.115.051-.174.018-.065.032-.129.046-.193.009-.037.018-.069.023-.106l.013-.069c.014-.064.023-.133.033-.197.009-.06.013-.115.023-.175l.013-.202a.877.877 0 0 0 .01-.114v-.115l.023-18.979c-.01.059-.014.137-.019.215Z"/><path fill="url(#s)" d="m200.314 407.949 1.303.753-1.031.592-1.304-.753 1.032-.592Z"/><path fill="url(#t)" d="m210.243 400.139.005 1.396-9.666 5.537.005 2.222 1.031-.592.005 1.395-2.261 1.3v-5.023l10.881-6.235Z"/><path fill="url(#u)" d="M199.361 406.374v5.023l-1.307-.758v-5.018l1.307.753Z"/><path fill="url(#v)" d="m208.941 399.386 1.303.753-10.881 6.235-1.308-.753 10.886-6.235Z"/><path fill="url(#w)" d="m207.064 411.851 1.303.758-1.031.592-1.304-.758 1.032-.592Z"/><path fill="url(#x)" d="m216.993 404.046.005 1.396-9.666 5.532.005 2.227 1.031-.592.005 1.395-2.257 1.295v-5.018l10.877-6.235Z"/><path fill="url(#y)" d="M206.117 410.281v5.018l-1.312-.753v-5.023l1.312.758Z"/><path fill="url(#z)" d="m215.691 403.289 1.303.757-10.877 6.235-1.312-.758 10.886-6.234Z"/><path fill="url(#A)" d="m213.816 415.758 1.303.758-1.027.592-1.308-.758 1.032-.592Z"/><path fill="url(#B)" d="M223.75 407.953v1.396l-9.666 5.532.009 2.227 1.027-.592.005 1.395-2.257 1.295v-5.018l10.882-6.235Z"/><path fill="url(#C)" d="M212.869 414.188v5.018l-1.308-.758v-5.018l1.308.758Z"/><path fill="url(#D)" d="m222.442 407.196 1.308.757-10.882 6.235-1.307-.758 10.881-6.234Z"/><path fill="url(#E)" d="m220.572 419.665 1.303.753-1.032.597-1.303-.758 1.032-.592Z"/><path fill="url(#F)" d="m230.501 411.86.005 1.396-9.666 5.532.005 2.227 1.031-.597.005 1.4-2.261 1.295v-5.018l10.881-6.235Z"/><path fill="url(#G)" d="M219.619 418.095v5.018l-1.308-.758v-5.018l1.308.758Z"/><path fill="url(#H)" d="m229.199 411.103 1.303.757-10.882 6.235-1.307-.758 10.886-6.234Z"/><path fill="url(#I)" d="m227.32 423.572 1.303.753-1.031.597-1.304-.758 1.032-.592Z"/><path fill="url(#J)" d="m237.249 415.763.005 1.4-9.666 5.532.005 2.227 1.031-.597.005 1.396-2.257 1.299v-5.023l10.877-6.234Z"/><path fill="url(#K)" d="M226.373 421.997v5.023l-1.312-.758v-5.018l1.312.753Z"/><path fill="url(#L)" d="m235.947 415.01 1.303.753-10.877 6.234-1.312-.753 10.886-6.234Z"/><path fill="url(#M)" d="m234.072 427.474 1.303.758-1.032.592-1.303-.753 1.032-.597Z"/><path fill="url(#N)" d="m244.001 419.67.005 1.395-9.666 5.537.005 2.222 1.031-.592.005 1.396-2.257 1.294v-5.018l10.877-6.234Z"/><path fill="url(#O)" d="M233.125 425.904v5.018l-1.308-.753v-5.018l1.308.753Z"/><path fill="url(#P)" d="m242.699 418.917 1.303.753-10.877 6.234-1.308-.753 10.882-6.234Z"/><path fill="url(#Q)" d="m316.635 407.949-1.304.753 1.032.592 1.303-.753-1.031-.592Z"/><path fill="url(#R)" d="m306.703 400.139-.004 1.396 9.665 5.537-.004 2.222-1.032-.592-.004 1.395 2.256 1.3v-5.023l-10.877-6.235Z"/><path fill="url(#S)" d="M317.583 406.374v5.023l1.308-.758v-5.018l-1.308.753Z"/><path fill="url(#T)" d="m308.009 399.386-1.303.753 10.877 6.235 1.308-.753-10.882-6.235Z"/><path fill="url(#U)" d="m309.879 411.851-1.304.758 1.032.592 1.303-.758-1.031-.592Z"/><path fill="url(#V)" d="m299.947 404.046-.005 1.396 9.666 5.532-.005 2.227-1.031-.592-.005 1.395 2.261 1.295v-5.018l-10.881-6.235Z"/><path fill="url(#W)" d="M310.831 410.281v5.018l1.308-.753v-5.023l-1.308.758Z"/><path fill="url(#X)" d="m301.253 403.289-1.304.757 10.882 6.235 1.308-.758-10.886-6.234Z"/><path fill="url(#Y)" d="m303.131 415.758-1.304.758 1.032.592 1.303-.758-1.031-.592Z"/><path fill="url(#Z)" d="m293.199 407.953-.005 1.396 9.666 5.532-.005 2.227-1.031-.592-.005 1.395 2.261 1.295v-5.018l-10.881-6.235Z"/><path fill="url(#aa)" d="M304.083 414.188v5.018l1.308-.758v-5.018l-1.308.758Z"/><path fill="url(#ab)" d="m294.504 407.196-1.303.757 10.882 6.235 1.308-.758-10.887-6.234Z"/><path fill="url(#ac)" d="m296.379 419.665-1.304.753 1.032.597 1.303-.758-1.031-.592Z"/><path fill="url(#ad)" d="m286.449 411.86-.004 1.396 9.665 5.532-.004 2.227-1.032-.597-.004 1.4 2.256 1.295v-5.018l-10.877-6.235Z"/><path fill="url(#ae)" d="M297.326 418.095v5.018l1.313-.758v-5.018l-1.313.758Z"/><path fill="url(#af)" d="m287.753 411.103-1.304.757 10.877 6.235 1.313-.758-10.886-6.234Z"/><path fill="url(#ag)" d="m289.627 423.572-1.307.753 1.031.597 1.303-.758-1.027-.592Z"/><path fill="url(#ah)" d="m279.691 415.763-.005 1.4 9.666 5.532-.005 2.227-1.031-.597-.005 1.396 2.261 1.299v-5.023l-10.881-6.234Z"/><path fill="url(#ai)" d="M290.575 421.997v5.023l1.308-.758v-5.018l-1.308.753Z"/><path fill="url(#aj)" d="m280.997 415.01-1.303.753 10.881 6.234 1.308-.753-10.886-6.234Z"/><path fill="url(#ak)" d="m282.873 427.475-1.303.757 1.031.592 1.303-.753-1.031-.596Z"/><path fill="url(#al)" d="m272.941 419.67-.005 1.396 9.666 5.536-.005 2.222-1.031-.592-.005 1.396 2.261 1.295v-5.018l-10.881-6.235Z"/><path fill="url(#am)" d="M283.825 425.905v5.018l1.308-.753v-5.018l-1.308.753Z"/><path fill="url(#an)" d="m274.247 418.917-1.304.753 10.882 6.235 1.308-.753-10.886-6.235Z"/><path fill="url(#ao)" d="m281.552 429.6-1.87-2.387-7.446-4.252.691-1.923 1.174.67-.051.202 7.502 4.219 1.036 1.23v.244l-1.032.597-.004 1.4Z" opacity=".8"/><path fill="url(#ap)" d="m288.308 425.698-1.875-2.388-7.446-4.246.696-1.929 1.174.675-.051.198 7.502 4.219 1.036 1.235v.239l-1.032.601-.004 1.396Z" opacity=".8"/><path fill="url(#aq)" d="m295.059 421.8-1.87-2.388-7.446-4.251.691-1.924 1.179.671-.051.202 7.497 4.219 1.041 1.235v.238l-1.036.597-.005 1.401Z" opacity=".8"/><path fill="url(#ar)" d="m301.815 417.897-1.87-2.387-7.446-4.247.691-1.928 1.174.675-.046.197 7.497 4.219 1.04 1.235v.239l-1.036.602-.004 1.395Z" opacity=".8"/><path fill="url(#as)" d="m308.569 414-1.869-2.388-7.451-4.251.695-1.924 1.175.671-.051.202 7.501 4.219 1.036 1.235v.238l-1.031.602-.005 1.396Z" opacity=".8"/><path fill="url(#at)" d="m315.325 410.097-1.874-2.387-7.446-4.247.695-1.928 1.174.675-.05.197 7.501 4.219 1.036 1.235v.244l-1.036.597v1.395Z" opacity=".8"/><path fill="url(#au)" d="m262.801 130.618-.585 145.518c.004 4.237-2.791 8.465-8.386 11.679-8.201 4.715-20.165 5.936-30.383 3.664-3.707-.822-7.179-2.094-10.159-3.829-2.795-1.621-4.9-3.508-6.299-5.5-1.41-2.002-2.109-4.128-2.114-6.244l.585-145.518 57.341.23Z"/><path fill="url(#av)" d="m234.324 85.575.018.019c.051.05.263.23.594.51 27.948 23.262 27.865 44.523 27.865 44.523v.037c-.009 2.502-1.004 5.013-2.975 7.295-1.359 1.602-3.205 3.099-5.526 4.417-10.126 5.78-25.825 6.28-36.973 1.602a28.267 28.267 0 0 1-3.569-1.763c-5.6-3.274-8.354-7.571-8.284-11.817 0 0 .082-21.578 28.85-44.823Z"/><path fill="url(#aw)" d="M217.323 143.973c11.153 4.678 26.852 4.183 36.973-1.602 2.321-1.318 4.168-2.814 5.526-4.417-.585-28.799-21.044-48.412-24.885-51.856-.332-.28-.543-.454-.594-.51 3.67 5.138 16.909 25.545 11.236 43.767-4.075 13.085-15.855 17.763-28.256 14.618Z"/><path fill="#fff" d="M253.94 260.604c-8.202 4.715-20.165 5.936-30.384 3.664-3.707-.822-7.179-2.094-10.158-3.829-2.795-1.621-4.9-3.508-6.3-5.5-1.409-2.002-2.109-4.128-2.114-6.244l-.004 1.62c.005 2.122.704 4.243 2.114 6.244 1.399 1.993 3.504 3.88 6.299 5.5 2.984 1.736 6.456 3.007 10.159 3.829 10.218 2.268 22.182 1.052 30.383-3.663 5.595-3.214 8.39-7.438 8.386-11.68l.004-1.621c.005 4.238-2.795 8.466-8.385 11.68Zm8.432-23.988-.005 1.62c.005 4.238-2.791 8.466-8.386 11.68-8.201 4.715-20.16 5.936-30.383 3.664-3.707-.822-7.179-2.094-10.159-3.825-2.795-1.625-4.899-3.507-6.299-5.5-1.41-2.001-2.109-4.127-2.114-6.244l.004-1.62c.005 2.121.7 4.242 2.11 6.244 1.4 1.992 3.504 3.879 6.299 5.5 2.984 1.735 6.452 3.007 10.159 3.829 10.223 2.272 22.182 1.051 30.383-3.664 5.6-3.218 8.395-7.442 8.391-11.684Zm.05-12.304-.004 1.62c.004 4.238-2.791 8.466-8.386 11.68-8.201 4.715-20.165 5.936-30.384 3.664-3.707-.822-7.179-2.094-10.158-3.829-2.795-1.621-4.9-3.508-6.3-5.5-1.409-2.002-2.109-4.128-2.113-6.244l.004-1.621c.005 2.121.7 4.242 2.109 6.244 1.4 1.993 3.505 3.88 6.3 5.5 2.984 1.736 6.456 3.007 10.158 3.829 10.223 2.268 22.183 1.051 30.384-3.664 5.6-3.213 8.395-7.442 8.39-11.679Zm.051-12.309-.005 1.621c.005 4.237-2.79 8.466-8.385 11.679-8.202 4.715-20.166 5.937-30.384 3.664-3.707-.822-7.179-2.093-10.158-3.829-2.796-1.625-4.9-3.507-6.3-5.5-1.409-2.002-2.109-4.127-2.114-6.244l.005-1.62c.004 2.121.704 4.242 2.113 6.243 1.4 1.993 3.505 3.875 6.3 5.501 2.984 1.735 6.456 3.007 10.159 3.824 10.218 2.272 22.182 1.051 30.383-3.664 5.595-3.209 8.39-7.437 8.386-11.675Zm.046-12.308-.005 1.62c.005 4.238-2.79 8.466-8.385 11.68-8.202 4.715-20.165 5.936-30.384 3.664-3.707-.822-7.179-2.094-10.158-3.829-2.796-1.621-4.9-3.508-6.3-5.5-1.409-2.002-2.109-4.128-2.109-6.244l.004-1.621c.005 2.121.705 4.242 2.114 6.244 1.4 1.992 3.505 3.879 6.3 5.5 2.984 1.735 6.451 3.007 10.158 3.829 10.223 2.268 22.182 1.051 30.384-3.664 5.59-3.213 8.39-7.442 8.381-11.679Zm.051-12.309-.005 1.621c.005 4.237-2.791 8.466-8.386 11.679-8.201 4.715-20.16 5.937-30.383 3.664-3.707-.822-7.175-2.094-10.159-3.824-2.795-1.626-4.899-3.508-6.299-5.5-1.409-2.002-2.109-4.128-2.109-6.244l.004-1.621c0 2.121.7 4.242 2.109 6.244 1.4 1.992 3.505 3.879 6.3 5.5 2.984 1.735 6.456 3.007 10.158 3.824 10.223 2.273 22.182 1.052 30.384-3.663 5.595-3.209 8.39-7.438 8.386-11.68Zm.05-12.304-.004 1.621c.004 4.237-2.791 8.466-8.386 11.679-8.201 4.715-20.165 5.937-30.384 3.664-3.707-.822-7.179-2.094-10.158-3.829-2.795-1.621-4.9-3.507-6.3-5.5-1.409-2.002-2.109-4.127-2.113-6.244l.009-1.62c0 2.121.7 4.242 2.109 6.243 1.4 1.993 3.504 3.88 6.299 5.5 2.985 1.736 6.457 3.008 10.159 3.829 10.223 2.273 22.182 1.052 30.384-3.663 5.595-3.214 8.39-7.442 8.385-11.68Zm.051-12.308-.005 1.62c.005 4.238-2.79 8.466-8.385 11.68-8.202 4.715-20.166 5.936-30.384 3.663-3.707-.821-7.179-2.093-10.158-3.824-2.796-1.625-4.9-3.507-6.3-5.5-1.409-2.002-2.109-4.127-2.109-6.244l.004-1.62c.005 2.121.705 4.242 2.114 6.243 1.4 1.993 3.505 3.88 6.3 5.5 2.984 1.736 6.451 3.008 10.158 3.825 10.223 2.272 22.182 1.051 30.384-3.664 5.59-3.214 8.385-7.442 8.381-11.679Zm.05-12.309-.004 1.621c.005 4.237-2.791 8.465-8.386 11.679-8.201 4.715-20.165 5.936-30.383 3.664-3.707-.822-7.179-2.094-10.159-3.829-2.795-1.621-4.899-3.508-6.299-5.5-1.41-2.002-2.11-4.128-2.11-6.244l.005-1.621c.005 2.121.705 4.243 2.114 6.244 1.4 1.993 3.504 3.88 6.299 5.5 2.984 1.736 6.452 3.007 10.159 3.829 10.223 2.273 22.182 1.052 30.383-3.663 5.586-3.214 8.386-7.443 8.381-11.68Zm.047-12.309-.005 1.621c.005 4.238-2.791 8.466-8.386 11.68-8.201 4.715-20.165 5.936-30.383 3.663-3.707-.822-7.179-2.093-10.159-3.824-2.795-1.625-4.899-3.508-6.299-5.5-1.409-2.002-2.109-4.127-2.114-6.244l.005-1.621c.004 2.121.7 4.243 2.109 6.244 1.4 1.993 3.504 3.88 6.299 5.5 2.984 1.736 6.452 3.007 10.159 3.825 10.218 2.272 22.182 1.051 30.383-3.664 5.6-3.209 8.395-7.438 8.391-11.68Z" opacity=".5"/><path fill="url(#ax)" d="m223.736 219.533-.29 71.946c-3.707-.822-7.179-2.094-10.158-3.829-2.796-1.621-4.9-3.508-6.3-5.5-1.409-2.002-2.109-4.128-2.114-6.244l.346-85.641.009.009c.046.032.175.142.387.321 18.097 15.059 18.12 28.814 18.12 28.938Z"/><path fill="url(#ay)" d="m192.389 336.328-.033 8.264c0 1.185.788 2.374 2.354 3.283 3.136 1.822 8.215 1.841 11.342.046 1.565-.9 2.348-2.08 2.343-3.264l.033-8.264-16.039-.065Z"/><path fill="#fff" d="M206.075 333.128c3.136 1.823 3.136 4.757.009 6.552-3.127 1.795-8.206 1.777-11.342-.046-3.136-1.823-3.136-4.756-.009-6.551 3.126-1.796 8.206-1.777 11.342.045Z"/><path fill="url(#az)" d="m187.916 307.052-.12 30.043c0 1.864 1.234 3.733 3.698 5.165 4.927 2.865 12.912 2.893 17.831.069 2.459-1.414 3.688-3.269 3.688-5.133l.12-30.044-25.217-.1Z"/><path fill="#fff" d="M209.436 302.02c4.927 2.865 4.932 7.474.014 10.297-4.914 2.824-12.899 2.792-17.831-.068-4.927-2.865-4.932-7.475-.018-10.298 4.918-2.824 12.908-2.791 17.835.069Z"/><path fill="url(#aA)" d="M204.057 305.109c1.952 1.134 1.957 2.966.004 4.086-1.948 1.121-5.116 1.107-7.068-.027-1.953-1.134-1.957-2.966-.005-4.082 1.948-1.124 5.116-1.115 7.069.023Z"/><path fill="url(#aB)" d="m292.225 243.539-.267 66.455 34.781-10.371.083-20.48-34.597-35.604Z"/><path fill="url(#aC)" d="m298.631 250.132-6.406-6.593-.267 66.455 6.443-1.919.23-57.943Z" opacity=".3"/><path fill="url(#aD)" d="m303.973 324.975-.033 8.255c-.004 1.193-.782 2.369-2.348 3.268-1.722.988-4.025 1.428-6.272 1.309-1.851-.074-3.661-.533-5.066-1.354-1.57-.91-2.362-2.094-2.357-3.288l.032-8.254 16.044.064Z"/><path fill="#fff" d="M301.616 321.711c3.136 1.822 3.136 4.756.009 6.551-3.127 1.795-8.206 1.777-11.342-.046-3.136-1.822-3.136-4.756-.009-6.551 3.126-1.795 8.206-1.777 11.342.046Z"/><path fill="url(#aE)" d="m308.674 295.73-.12 30.044c.005 1.864-1.22 3.728-3.684 5.142-.299.174-.599.33-.921.472-2.639 1.249-5.963 1.777-9.196 1.584-.009.01-.009.01-.023 0-.166-.013-.332-.023-.488-.045-.088 0-.134-.014-.134-.014-2.224-.184-4.379-.726-6.203-1.625a8.332 8.332 0 0 1-.861-.446c-1.238-.721-2.164-1.542-2.781-2.428-.617-.877-.921-1.814-.921-2.741l.12-30.044 25.212.101Z"/><path fill="#fff" d="M304.986 300.904c-2.929 1.676-6.949 2.346-10.757 1.997-2.588-.22-5.079-.927-7.069-2.07-4.936-2.87-4.941-7.484-.023-10.298 3.076-1.763 7.341-2.42 11.315-1.951 2.39.275 4.669.945 6.525 2.024 4.923 2.856 4.927 7.47.009 10.298Z"/><path fill="url(#aF)" d="M292.525 293.664c1.952-1.12 5.116-1.107 7.073.027 1.952 1.134 1.957 2.966.004 4.086-1.948 1.121-5.116 1.107-7.068-.027-1.957-1.139-1.957-2.966-.009-4.086Z"/><path fill="url(#aG)" d="M287.159 300.835c-.35-.202-.667-.418-.967-.633l-2.758 2.277-.092 23.203c-.005.927.304 1.868.921 2.741.617.886 1.543 1.708 2.781 2.428.277.166.562.313.861.446l-.009 1.878c-.004 1.193.788 2.378 2.358 3.287 1.405.822 3.214 1.281 5.065 1.354l.019-4.802a5.25 5.25 0 0 1-.585-.037c-.009.009-.009.009-.023 0-.198-.014-.378-.037-.488-.046-.088 0-.134-.014-.134-.014l.12-30.011c-2.588-.221-5.079-.928-7.069-2.071Z"/><path fill="url(#aH)" d="m298.453 288.582-4.223 14.319c-2.588-.22-5.079-.927-7.068-2.07-4.937-2.87-4.941-7.484-.023-10.298 3.076-1.763 7.34-2.419 11.314-1.951Z"/><path fill="url(#aI)" d="m182.258 214.707 37.277.152-.401 99.01c.014 2.759-1.814 5.5-5.443 7.594-7.266 4.164-19.069 4.118-26.363-.106-1.824-1.056-3.191-2.277-4.094-3.581-.912-1.295-1.372-2.676-1.377-4.058l.401-99.011Z"/><path fill="url(#aJ)" d="m203.814 214.794-.442 109.621c3.776-.317 7.409-1.29 10.315-2.962 1.34-.771 2.431-1.634 3.279-2.548l.419-104.055-13.571-.056Z" opacity=".5"/><path fill="url(#aK)" d="m193.633 214.758-8.234-.032-.424 104.96a15.085 15.085 0 0 0 2.354 1.667c1.736 1.01 3.734 1.767 5.862 2.295l.442-108.89Z"/><path fill="url(#aL)" d="M182.267 214.717c-.046 2.763 1.745 5.555 5.383 7.68.728.423 1.502.813 2.321 1.148 7.249 3.039 17.458 2.718 24.038-1.042 1.506-.859 2.708-1.832 3.592-2.874 1.285-1.483 1.93-3.117 1.934-4.743v-.023s.055-13.819-18.111-28.941c-.217-.184-.355-.299-.387-.331l-.014-.009c-18.701 15.109-18.756 29.135-18.756 29.135Z"/><path fill="url(#aM)" d="M189.97 223.545c7.248 3.039 17.457 2.718 24.038-1.042 1.506-.859 2.707-1.832 3.592-2.874-.383-18.722-13.682-31.472-16.178-33.708-.216-.183-.354-.298-.386-.33 2.385 3.342 10.992 16.606 7.303 28.45-2.648 8.503-10.306 11.547-18.369 9.504Z"/><path fill="url(#aN)" d="m219.508 221.135-.014 2.814a8.423 8.423 0 0 1-1.405 2.19c-.911 1.079-2.145 2.08-3.697 2.966-6.793 3.87-17.31 4.201-24.793 1.069a19.458 19.458 0 0 1-2.386-1.179c-2.528-1.488-4.195-3.274-4.996-5.165l.014-2.847c.801 1.892 2.454 3.696 4.991 5.188.751.432 1.548.836 2.386 1.18 7.483 3.145 18.001 2.81 24.793-1.07 1.552-.886 2.786-1.887 3.698-2.966a8.696 8.696 0 0 0 1.409-2.18Z" opacity=".3"/><path fill="url(#aO)" d="m292.34 218.049-.461 114.662c.005 4.921-3.251 9.843-9.762 13.58-10.329 5.932-25.793 7.107-38.254 3.521-3.218-.918-6.244-2.153-8.919-3.709-3.261-1.901-5.706-4.072-7.336-6.409-1.63-2.323-2.45-4.789-2.45-7.25l.461-114.661 66.721.266Z"/><path fill="url(#aP)" d="m288.715 218.031-16.463-.064-.534 132.337c3.776-.919 7.322-2.241 10.398-4.008 2.528-1.451 4.554-3.081 6.101-4.821l.498-123.444Z"/><path fill="url(#aQ)" d="M292.33 218.059v.032c-.009 2.915-1.165 5.835-3.467 8.498-1.58 1.859-3.726 3.604-6.434 5.142-11.774 6.73-30.042 7.309-43.019 1.859a32.328 32.328 0 0 1-4.154-2.047c-6.516-3.811-9.716-8.815-9.633-13.746 0 0 .013-3.434 1.717-9.122.898-2.975 2.252-6.556 4.306-10.601 4.656-9.155 12.912-20.6 27.542-32.431l.023.014c.065.064.309.266.696.596 14.045 11.703 22.016 22.96 26.52 31.972 2.03 4.059 3.356 7.654 4.231 10.638 1.686 5.743 1.672 9.196 1.672 9.196Z"/><path fill="url(#aR)" d="M239.414 233.59c12.977 5.445 31.245 4.867 43.025-1.864 2.698-1.538 4.849-3.278 6.428-5.142-.681-33.51-24.484-56.332-28.96-60.335a21.907 21.907 0 0 1-.691-.593c4.273 5.978 19.677 29.727 13.073 50.929-4.738 15.219-18.443 20.664-32.875 17.005Z"/><path fill="url(#aS)" d="M187.794 337.885s.442-2.585 12.226-5.776c11.784-3.19 13.018-.739 13.018-.739l.019-4.953-25.249 7.887-.014 3.581Z"/><path fill="url(#aT)" d="M282.175 331.154c-13.005 7.465-34.137 7.387-47.178-.188-6.521-3.788-9.786-8.732-9.79-13.667l-.014 2.896c.004 4.931 3.269 9.876 9.79 13.668 13.041 7.575 34.173 7.653 47.178.188 6.507-3.737 9.762-8.654 9.758-13.585l.009-2.892c.009 4.922-3.242 9.843-9.753 13.58Zm9.808-26.086-.014 2.897c.005 4.931-3.246 9.852-9.753 13.585-13.004 7.465-34.136 7.387-47.178-.188-6.52-3.788-9.785-8.733-9.79-13.668l.014-2.897c.005 4.931 3.269 9.875 9.79 13.668 13.041 7.575 34.173 7.653 47.178.188 6.507-3.733 9.758-8.65 9.753-13.585Zm.051-12.492-.014 2.892c.005 4.931-3.246 9.852-9.758 13.585-13.004 7.465-34.136 7.387-47.178-.188-6.52-3.788-9.785-8.732-9.79-13.668l.014-2.892c.005 4.931 3.269 9.875 9.79 13.667 13.041 7.576 34.174 7.654 47.178.189 6.511-3.733 9.762-8.654 9.758-13.585Zm.051-12.497-.014 2.897c.004 4.931-3.247 9.852-9.758 13.585-13.005 7.465-34.137 7.387-47.178-.188-6.521-3.788-9.786-8.733-9.79-13.663l.014-2.897c.004 4.93 3.269 9.875 9.79 13.663 13.041 7.575 34.173 7.653 47.178.188 6.511-3.733 9.762-8.654 9.758-13.585Zm.05-12.492-.014 2.892c.005 4.931-3.246 9.852-9.753 13.585-13.009 7.465-34.137 7.387-47.182-.188-6.521-3.788-9.786-8.732-9.791-13.668l.014-2.892c.005 4.931 3.27 9.875 9.79 13.667 13.042 7.576 34.174 7.654 47.178.189 6.512-3.737 9.763-8.654 9.758-13.585Zm.051-12.497-.014 2.897c.005 4.931-3.247 9.852-9.758 13.585-13.004 7.465-34.137 7.387-47.182-.188-6.521-3.788-9.786-8.733-9.79-13.668l.013-2.897c.005 4.931 3.27 9.875 9.79 13.668 13.042 7.575 34.174 7.653 47.178.188 6.512-3.733 9.767-8.654 9.763-13.585Zm.05-12.497-.013 2.897c.004 4.931-3.247 9.852-9.758 13.585-13.005 7.465-34.137 7.387-47.178-.188-6.521-3.788-9.786-8.732-9.79-13.663l.009-2.893c.005 4.931 3.269 9.876 9.79 13.668 13.041 7.575 34.174 7.653 47.178.188 6.511-3.742 9.767-8.659 9.762-13.594Zm.051-12.492-.014 2.892c.005 4.931-3.246 9.853-9.753 13.585-13.004 7.465-34.137 7.387-47.178-.188-6.52-3.788-9.785-8.732-9.79-13.668l.014-2.897c.004 4.931 3.269 9.876 9.79 13.668 13.041 7.575 34.173 7.653 47.178.188 6.502-3.732 9.758-8.649 9.753-13.58Z"/><path fill="url(#aU)" d="m179.073 316.578-.083 20.48 49.37-15.425.267-66.456-49.554 61.401Z"/><path fill="url(#aV)" d="m176.475 316.569-.133 21.27 2.602-.813.083-20.48 49.554-61.401.073-4.086-52.179 65.51Z"/><path fill="url(#aW)" d="m243.941 329.153-.083 20.664c-3.218-.918-6.244-2.153-8.919-3.709-3.261-1.901-5.706-4.073-7.336-6.409-1.63-2.324-2.45-4.789-2.45-7.25l.037-9.691c4.798-1.525 10.978-1.102 15.054 1.276 2.449 1.419 3.684 3.264 3.697 5.119Z" opacity=".5"/><path fill="url(#aX)" d="m220.209 354.697-.032 8.264c0 1.184.787 2.373 2.353 3.282 3.136 1.823 8.215 1.841 11.342.046 1.566-.899 2.348-2.079 2.344-3.264l.032-8.264-16.039-.064Z"/><path fill="#fff" d="M233.895 351.497c3.136 1.823 3.136 4.756.009 6.552-3.127 1.795-8.206 1.776-11.342-.046-3.136-1.823-3.136-4.757-.009-6.552 3.127-1.795 8.206-1.776 11.342.046Z"/><path fill="url(#aY)" d="m215.738 325.42-.119 30.044c.004 1.864 1.234 3.732 3.697 5.165 4.928 2.865 12.913 2.892 17.831.069 2.459-1.414 3.688-3.269 3.688-5.133l.12-30.044-25.217-.101Z"/><path fill="#fff" d="M237.254 320.388c4.928 2.865 4.932 7.475.014 10.298-4.914 2.824-12.898 2.791-17.83-.069-4.928-2.865-4.932-7.474-.019-10.297 4.923-2.824 12.908-2.792 17.835.068Z"/><path fill="url(#aZ)" d="M224.806 323.451c1.952-1.121 5.116-1.107 7.073.027 1.953 1.134 1.957 2.966.005 4.086-1.948 1.12-5.116 1.107-7.069-.027-1.957-1.139-1.957-2.971-.009-4.086Z"/><path fill="url(#ba)" d="M212.73 137.394c-5.18-2.791-4.006-14.953 2.616-27.169 6.622-12.213 16.191-19.852 21.371-17.06 5.181 2.79 4.007 14.952-2.615 27.169-6.622 12.212-16.191 19.852-21.372 17.06Z"/><path fill="url(#bb)" d="M235.361 221.75c-5.181-2.791-4.006-14.953 2.616-27.17 6.622-12.212 16.191-19.851 21.371-17.06 5.181 2.791 4.007 14.953-2.615 27.17-6.627 12.212-16.191 19.851-21.372 17.06Z"/><path fill="url(#bc)" d="M294.634 208.578c-1.63-2.217-3.499-4.201-5.516-6.023 1.211 1.244 2.367 2.543 3.407 3.957 3.251 4.421 5.494 10.257 5.503 15.798-.013 5.541-2.256 11.377-5.503 15.798-5.535 7.529-13.718 12.547-22.2 16.137-8.11 3.434-16.702 5.647-25.424 6.79-12.839 1.685-26.083 1.222-38.756-1.455-11.397-2.406-22.964-6.703-32.133-14.039-7.119-5.698-12.968-13.806-12.94-23.24-.023-7.571 3.762-14.26 8.929-19.563-6.341 5.739-11.25 13.383-11.222 22.157-.028 9.746 6.019 18.13 13.373 24.015 9.472 7.58 21.431 12.02 33.211 14.508 13.101 2.768 26.782 3.246 40.054 1.501 9.016-1.184 17.899-3.47 26.276-7.019 8.767-3.714 17.227-8.898 22.946-16.68 3.362-4.568 5.678-10.6 5.687-16.33-.018-5.711-2.335-11.744-5.692-16.312Z"/><path fill="url(#bd)" d="M274.431 175.109c-1.123-1.528-2.413-2.896-3.803-4.154.833.858 1.634 1.753 2.353 2.727 2.242 3.048 3.785 7.074 3.794 10.894-.009 3.825-1.556 7.846-3.794 10.895-3.818 5.192-9.463 8.654-15.312 11.128-5.59 2.369-11.517 3.894-17.535 4.683-8.856 1.162-17.987.845-26.728-1.001-7.86-1.662-15.841-4.623-22.159-9.682-4.909-3.93-8.943-9.522-8.924-16.027-.014-5.22 2.597-9.834 6.157-13.493-4.375 3.957-7.76 9.232-7.741 15.279-.019 6.721 4.149 12.501 9.224 16.564 6.534 5.229 14.777 8.291 22.905 10.004 9.035 1.91 18.47 2.236 27.625 1.037 6.221-.817 12.341-2.391 18.12-4.839 6.047-2.561 11.881-6.138 15.823-11.505 2.316-3.154 3.914-7.309 3.923-11.261-.013-3.94-1.611-8.099-3.928-11.249Z"/><path fill="url(#be)" d="M355.036 323.23c28.717-16.527 75.144-16.527 103.718.023 28.527 16.528 28.375 43.34-.337 59.872-28.716 16.528-75.143 16.528-103.676 0-28.574-16.555-28.422-43.367.295-59.895Zm29.232 42.894c12.319 7.139 32.364 7.117 44.765-.023 12.401-7.139 12.507-18.713.184-25.852-12.359-7.162-32.405-7.139-44.806 0-12.396 7.139-12.502 18.713-.143 25.875Z" opacity=".3"/><path fill="url(#bf)" d="M384.418 327.027a34.85 34.85 0 0 1 4.573-2.185c.078-.032.17-.055.253-.083.254-.096.521-.17.779-.262.925-.335 1.851-.675 2.822-.95.512-.147 1.046-.252 1.566-.381.309-.078.608-.156.917-.225.276-.064.548-.142.828-.202a53.167 53.167 0 0 1 3.141-.546c.368-.051.741-.078 1.114-.124.263-.032.525-.06.788-.087.391-.042.783-.097 1.179-.129a50.66 50.66 0 0 1 3.117-.165c.323-.01.645.009.967.004.281 0 .558 0 .838.005.479.004.958-.009 1.437.009 1.174.041 2.349.119 3.509.234.129.014.258.042.387.055.308.032.612.088.921.129.912.115 1.828.22 2.726.381.392.069.755.202 1.142.285 1.082.22 2.123.491 3.164.785.552.156 1.146.243 1.685.417.253.083.456.225.705.313 2.215.762 4.342 1.634 6.244 2.736.129.073.258.151.382.225.604.362 1.027.776 1.571 1.161.764.542 1.579 1.061 2.219 1.639.06.055.148.097.207.152a17.842 17.842 0 0 1 1.957 2.098c.129.165.222.335.341.505.125.17.235.344.35.519.194.289.415.569.58.858.332.588.613 1.189.843 1.791.032.092.046.188.078.28.042.115.065.229.097.344.12.381.253.762.332 1.148a11.129 11.129 0 0 1 .212 2.084l.013 5.845c-.004-1.084-.207-2.163-.543-3.232-.037-.115-.06-.235-.101-.354-.346-.996-.866-1.97-1.502-2.929-.115-.174-.225-.349-.35-.519a17.916 17.916 0 0 0-2.505-2.754c-.644-.579-1.459-1.102-2.228-1.644-.654-.459-1.207-.95-1.948-1.382-1.902-1.102-4.039-1.979-6.249-2.741-.779-.266-1.575-.5-2.381-.725a44.69 44.69 0 0 0-3.178-.79 50.158 50.158 0 0 0-3.858-.661c-.309-.037-.618-.096-.926-.128a53.573 53.573 0 0 0-5.328-.294c-.286 0-.566-.005-.852-.005a54.195 54.195 0 0 0-6.042.381 49.774 49.774 0 0 0-5.083.872c-.309.069-.613.147-.917.225-1.51.372-2.979.822-4.393 1.336-.253.092-.52.161-.764.257-1.7.657-3.325 1.405-4.826 2.273-4.684 2.695-7.612 6.023-8.782 9.508a10.968 10.968 0 0 0-.58 3.521l-.014-5.844c-.005-4.72 3.122-9.439 9.366-13.034Z"/><path fill="url(#bg)" d="M333.588 342.939c.069.767.124 1.529.262 2.296.115.629.309 1.253.47 1.878.193.73.368 1.46.626 2.18.212.597.498 1.185.755 1.777.332.762.668 1.529 1.073 2.282.295.546.65 1.083.981 1.621a35.097 35.097 0 0 0 1.727 2.557c.373.496.774.982 1.179 1.469a41.87 41.87 0 0 0 3.113 3.338c.41.394.783.798 1.216 1.189.709.638 1.496 1.248 2.27 1.868.672.537 1.317 1.084 2.04 1.603.838.606 1.759 1.189 2.666 1.772.917.592 1.787 1.203 2.772 1.776 2.192 1.272 4.522 2.411 6.912 3.485.687.308 1.391.597 2.091.891 1.87.78 3.79 1.506 5.756 2.171.705.239 1.396.501 2.114.721 1.239.39 2.505.73 3.771 1.074.963.262 1.911.537 2.883.776 1.331.322 2.685.588 4.039.863.925.189 1.842.395 2.781.56 2.745.482 5.531.864 8.34 1.157.861.092 1.727.143 2.592.216 1.653.138 3.307.257 4.969.331 1.055.046 2.109.069 3.168.087 1.34.023 2.685.037 4.025.018 1.124-.013 2.243-.05 3.366-.092a116.683 116.683 0 0 0 7.101-.482 121.874 121.874 0 0 0 6.935-.867 131.774 131.774 0 0 0 6.931-1.286c1.538-.335 3.053-.716 4.554-1.115.838-.221 1.681-.432 2.505-.671a96.477 96.477 0 0 0 7.87-2.649c.354-.137.691-.298 1.045-.44 3.477-1.401 6.825-2.957 9.929-4.748 10.84-6.239 17.604-13.943 20.298-22.004.898-2.686 1.345-5.413 1.336-8.14l.013 5.192c.028 10.904-7.188 21.826-21.638 30.145-3.104 1.786-6.447 3.342-9.924 4.742-.226.092-.419.221-.649.308-.129.05-.277.087-.406.138a93.727 93.727 0 0 1-7.865 2.644c-.216.064-.414.152-.631.211-.612.175-1.257.294-1.879.459-1.505.4-3.016.776-4.554 1.116-.41.092-.801.211-1.211.298-.603.124-1.225.202-1.828.317-1.285.244-2.579.473-3.877.675-.525.083-1.037.198-1.562.271-.571.083-1.155.119-1.726.193-1.216.156-2.432.289-3.657.408-.585.056-1.16.147-1.745.193-.543.046-1.091.051-1.639.088-1.239.087-2.478.151-3.726.197-.621.023-1.239.083-1.86.096-.498.014-.995-.013-1.492-.004-1.34.018-2.68.004-4.02-.019-.668-.013-1.336.014-1.999-.009-.396-.014-.787-.059-1.179-.078a128.279 128.279 0 0 1-4.959-.33c-.663-.055-1.336-.069-1.999-.134-.203-.018-.405-.064-.608-.082a121.1 121.1 0 0 1-8.339-1.157c-.134-.023-.272-.032-.406-.055-.792-.143-1.556-.34-2.343-.501-1.364-.275-2.731-.541-4.067-.867-.971-.234-1.92-.51-2.878-.772-1.271-.344-2.542-.688-3.785-1.079-.267-.082-.543-.146-.806-.229-.447-.142-.847-.34-1.289-.487a90.32 90.32 0 0 1-5.77-2.18c-.7-.294-1.4-.579-2.086-.887-2.39-1.074-4.72-2.212-6.912-3.484-.3-.175-.599-.349-.898-.528-.677-.404-1.248-.84-1.888-1.258-.898-.583-1.815-1.157-2.648-1.758-.723-.524-1.373-1.07-2.045-1.612-.769-.615-1.556-1.23-2.261-1.864-.143-.128-.318-.248-.456-.376-.285-.262-.483-.551-.76-.818a41.507 41.507 0 0 1-3.108-3.333c-.207-.248-.483-.482-.681-.73-.194-.243-.318-.5-.502-.743a34.898 34.898 0 0 1-1.727-2.558c-.221-.358-.521-.707-.723-1.069-.102-.184-.161-.368-.258-.551-.405-.753-.742-1.515-1.073-2.282-.194-.445-.456-.881-.622-1.327-.055-.151-.078-.303-.129-.454-.258-.726-.437-1.456-.631-2.186-.129-.495-.327-.982-.423-1.478-.028-.133-.023-.262-.046-.395-.143-.762-.194-1.529-.263-2.295-.046-.505-.156-1.001-.175-1.506-.004-.216-.009-.427-.009-.643l-.014-5.192c0 .725.115 1.441.18 2.157Z"/><path fill="#fff" d="M355.037 310.655c-28.716 16.528-28.868 43.34-.299 59.895 28.528 16.528 74.959 16.528 103.676 0s28.868-43.344.336-59.872c-28.569-16.55-75.001-16.55-103.713-.023Zm73.997 42.872c-12.401 7.139-32.442 7.162-44.765.022-12.359-7.162-12.253-18.736.148-25.875 12.401-7.139 32.442-7.162 44.801 0 12.319 7.139 12.213 18.718-.184 25.853Z"/><path fill="url(#bh)" d="M386.158 307.942v10.385l-18.816-10.917-.027-10.385 18.843 10.917Z"/><path fill="url(#bi)" d="m446.475 297.002-19.01 10.94c-12.617-4.435-28.596-4.416-41.306 0l-18.844-10.917c23.513-10.119 55.799-10.119 79.16-.023Z"/><path fill="url(#bj)" d="M418.109 315.958c-.806-.138-1.625-.234-2.44-.34-.94-.124-1.875-.248-2.823-.33-.58-.051-1.161-.078-1.741-.115a68.603 68.603 0 0 0-3.371-.129c-.506-.004-1.013-.013-1.524-.004-1.4.014-2.804.064-4.2.165-.198.014-.4.019-.603.032a69.876 69.876 0 0 0-4.715.556c-.461.069-.908.156-1.364.234a63.77 63.77 0 0 0-3.278.661c-.59.138-1.179.276-1.759.432-1.391.367-2.805.753-4.136 1.212v-10.385a55.148 55.148 0 0 1 2.961-.932c.378-.106.769-.179 1.152-.28.58-.152 1.16-.294 1.75-.427.442-.101.87-.23 1.321-.322.645-.133 1.308-.225 1.962-.339.456-.078.902-.166 1.363-.235.221-.032.433-.082.649-.114a67.83 67.83 0 0 1 3.896-.436c.055-.005.106-.005.161-.01.212-.018.424-.018.631-.032a65.71 65.71 0 0 1 3.141-.165c.345-.009.69.009 1.036.005.511-.005 1.013 0 1.524.009.511.004 1.018-.009 1.524.004.617.023 1.23.083 1.847.124.585.037 1.165.065 1.741.115.271.023.548.028.819.055.677.069 1.34.193 2.013.28.815.106 1.625.202 2.426.335.217.037.438.051.654.092.327.06.622.17.944.234 1.865.368 3.684.818 5.462 1.35.322.096.677.142.994.248.452.147.898.294 1.341.45l.027 10.385c-.75-.266-1.552-.459-2.325-.693a58.23 58.23 0 0 0-5.476-1.355c-.529-.119-1.05-.248-1.584-.335Z"/><path fill="url(#bk)" d="m446.474 297.002.028 10.385-19.009 10.94-.028-10.385 19.009-10.94Z"/><path fill="url(#bl)" d="m372.576 315.761.028 10.385c-3.882 3.7-5.826 7.887-5.817 12.065l-.032-10.385c-.004-4.178 1.939-8.365 5.821-12.065Z"/><path fill="url(#bm)" d="M340.549 329.203c.05.84.143 1.68.29 2.516.069.395.152.785.244 1.175.18.79.41 1.575.677 2.356.124.358.23.716.368 1.074a26.51 26.51 0 0 0 1.598 3.393c.005.009.009.018.019.027.667 1.18 1.473 2.337 2.348 3.48.226.294.47.588.709.882 1.092 1.336 2.28 2.653 3.657 3.925a47.04 47.04 0 0 0 2.988 2.525v10.385a44.405 44.405 0 0 1-2.928-2.493l-.028-.027a37.65 37.65 0 0 1-3.661-3.93c-.124-.152-.295-.294-.414-.446-.111-.142-.18-.289-.291-.427-.87-1.143-1.676-2.3-2.344-3.475-.004-.009-.013-.018-.018-.032l-.005-.005a26.345 26.345 0 0 1-1.593-3.393c-.046-.114-.12-.225-.161-.344-.092-.243-.129-.491-.212-.734a23.279 23.279 0 0 1-.677-2.356c-.046-.206-.138-.413-.179-.62-.037-.183-.033-.367-.065-.55a23.222 23.222 0 0 1-.29-2.512c-.014-.238-.074-.477-.083-.716-.004-.193-.009-.386-.009-.583l-.032-10.385c0 .427.064.859.092 1.29Z"/><path fill="url(#bn)" d="m353.731 304.843 18.843 10.918c-7.685 7.327-7.778 16.55-.133 23.855l-18.996 10.94c-17.407-13.525-17.315-32.165.286-45.713Z"/><path fill="url(#bo)" d="M353.446 350.556v10.385l18.995-10.94v-10.385l-18.995 10.94Z"/><path fill="url(#bp)" d="M443.131 318.116c.069.087.11.179.179.262.203.266.36.537.544.803.29.427.617.849.866 1.285.119.212.193.427.304.643.142.28.271.565.396.845.11.252.257.505.354.757.166.441.263.887.382 1.332.06.216.139.427.185.643.018.082.055.165.073.252a13.641 13.641 0 0 1 .267 2.626l.028 10.385c0-.964-.129-1.924-.341-2.878-.046-.216-.129-.427-.184-.643a14.78 14.78 0 0 0-.741-2.094 16.956 16.956 0 0 0-.396-.844 18.185 18.185 0 0 0-1.17-1.933c-.184-.267-.341-.533-.539-.799a22.155 22.155 0 0 0-2.312-2.599l-.027-10.385a23.252 23.252 0 0 1 2.132 2.342Z"/><path fill="url(#bq)" d="m472.986 327.491.028 10.385c.013 5.068-1.709 10.146-5.172 14.907-2.077 2.855-4.78 5.601-8.105 8.163l-.032-10.385c8.879-6.836 13.304-14.963 13.281-23.07Z"/><path fill="url(#br)" d="m441.001 315.783 19.009-10.94c17.407 13.525 17.301 32.165-.299 45.713l-18.844-10.917c7.686-7.328 7.778-16.551.134-23.856Z"/><path fill="url(#bs)" d="m459.708 350.556.032 10.385-18.848-10.917-.028-10.385 18.844 10.917Z"/><path fill="url(#bt)" d="M385.975 347.457c12.618 4.44 28.597 4.417 41.306 0l18.844 10.918c-23.518 10.118-55.798 10.118-79.159.023l19.009-10.941Z"/><path fill="url(#bu)" d="M375.558 361.51c.543.166 1.1.308 1.648.469a97.078 97.078 0 0 0 7.838 1.896c.396.078.778.174 1.174.248 3.122.578 6.304 1.019 9.519 1.327.506.045 1.017.059 1.524.101 2.671.215 5.351.335 8.045.362.713.009 1.432.014 2.145.009 3.026-.027 6.056-.146 9.059-.413.446-.041.888-.105 1.335-.147a108.25 108.25 0 0 0 8.059-1.124c.607-.106 1.22-.198 1.823-.317a97.063 97.063 0 0 0 8.653-2.094c.921-.266 1.787-.61 2.685-.904 2.403-.785 4.803-1.58 7.059-2.548h.005l.027 10.385c-.764.326-1.533.642-2.311.95-1.529.601-3.15 1.074-4.739 1.593-.907.294-1.777.638-2.698.909-.208.06-.396.142-.604.202a98.956 98.956 0 0 1-6.949 1.699c-.359.073-.732.119-1.096.188-.607.119-1.225.211-1.837.317-1.206.211-2.404.454-3.629.629-1.459.206-2.942.344-4.42.491-.447.046-.889.11-1.336.152-.226.018-.447.055-.672.073-2.16.179-4.333.294-6.512.349-.626.014-1.252-.014-1.878-.009-.714.004-1.423-.005-2.137-.009-.912-.01-1.828.018-2.74-.014-1.782-.06-3.555-.211-5.323-.354-.502-.041-1.004-.05-1.502-.101-.17-.014-.345-.018-.511-.032a108.743 108.743 0 0 1-8.468-1.175c-.185-.032-.36-.083-.539-.115-.396-.073-.778-.17-1.174-.248a97.078 97.078 0 0 1-7.838-1.896c-.553-.156-1.105-.298-1.649-.468-.354-.11-.727-.193-1.077-.303a81.63 81.63 0 0 1-7.511-2.805l-.028-10.385c2.731 1.184 5.619 2.203 8.58 3.112Z"/><path fill="url(#bv)" d="m27.8 431.808 18.024 10.399 17.992-10.399-17.992-10.398-18.023 10.398Zm48.5 7.116 17.992 10.399L76.3 459.722l-18.024-10.399L76.3 438.924Zm30.444 17.575 17.991 10.399-17.991 10.398-18.024-10.398 18.024-10.399Zm30.425 17.648 17.991 10.399-17.991 10.398-18.024-10.398 18.024-10.399Z" opacity=".3"/><path fill="url(#bw)" d="m45.825 319.447 17.987 10.399-17.986 10.399-18.024-10.399 18.023-10.399Z"/><path fill="url(#bx)" d="M45.824 340.245v95.558L27.8 425.404v-95.558l18.024 10.399Z"/><path fill="url(#by)" d="M63.813 329.846v95.558l-17.988 10.399v-95.558l17.987-10.399Z"/><path fill="url(#bz)" d="m76.301 365.495 17.992 10.399-17.992 10.399-18.023-10.399L76.3 365.495Z"/><path fill="url(#bA)" d="M76.3 386.293v67.001l-18.023-10.398v-67.002L76.3 386.293Z"/><path fill="url(#bB)" d="M76.301 386.293v67.001l17.992-10.398v-67.002l-17.992 10.399Z"/><path fill="url(#bC)" d="m106.743 364.834 17.987 10.399-17.987 10.399-18.023-10.399 18.023-10.399Z"/><path fill="url(#bD)" d="M106.742 385.632v85.159l-18.024-10.399v-85.159l18.024 10.399Z"/><path fill="url(#bE)" d="M124.73 375.233v85.159l-17.987 10.399v-85.159l17.987-10.399Z"/><path fill="url(#bF)" d="m137.169 405.447 17.991 10.398-17.991 10.399-18.024-10.399 18.024-10.398Z"/><path fill="url(#bG)" d="M119.144 415.845v62.039l18.024 10.399v-62.039l-18.024-10.399Z"/><path fill="url(#bH)" d="M137.169 426.244v62.039l17.991-10.399v-62.039l-17.991 10.399Z"/><path fill="url(#bI)" d="M209.589 500.701a27.083 27.083 0 0 0-.728-3.131 8.99 8.99 0 0 0-.092-.294 31.703 31.703 0 0 0-1.253-3.383c-.009-.023-.023-.046-.032-.069a35.364 35.364 0 0 0-1.699-3.352c-.018-.027-.032-.059-.046-.087a35.425 35.425 0 0 0-2.012-3.067c-.065-.087-.129-.179-.198-.266a31.27 31.27 0 0 0-2.105-2.52 15.557 15.557 0 0 0-.479-.51c-.58-.606-1.193-1.152-1.81-1.689-.281-.244-.548-.505-.833-.73-.88-.698-1.778-1.336-2.703-1.869a18.055 18.055 0 0 0-1.815-.9 9.935 9.935 0 0 0-.566-.225 14.117 14.117 0 0 0-1.662-.528 12.182 12.182 0 0 0-1.35-.243 9 9 0 0 0-1.358-.06h-.212a8.223 8.223 0 0 0-1.068.133 4.503 4.503 0 0 0-.254.06c-.271.06-.538.138-.796.23a6.702 6.702 0 0 0-1.188.537l4.416-2.557c.027-.014.051-.033.078-.046.235-.134.474-.248.723-.354.046-.018.097-.032.143-.05.078-.033.161-.055.244-.088.124-.046.244-.096.373-.133.133-.041.281-.064.419-.096l.253-.06c.046-.009.088-.023.138-.032.286-.05.576-.083.871-.101h.06c.069-.005.147 0 .216 0 .226-.009.447-.014.682-.005.078.005.161.019.239.023.143.01.29.028.438.042.133.013.262.018.4.041.12.018.244.055.359.078a9.6 9.6 0 0 1 .594.129c.106.027.212.036.318.068.106.028.217.079.322.111.337.101.673.215 1.018.349.12.045.235.073.359.124.069.027.139.073.208.101.594.257 1.197.546 1.814.899a21.882 21.882 0 0 1 2.703 1.869c.286.225.553.487.829.73.424.367.861.712 1.271 1.116.189.183.359.39.543.578.161.165.318.335.475.505.184.197.373.381.552.588.401.459.792.932 1.17 1.418.133.17.253.345.382.515l.198.266c.124.17.258.34.382.514a36.266 36.266 0 0 1 1.58 2.461l.055.096c.018.028.032.06.046.087a33.393 33.393 0 0 1 1.193 2.245c.179.368.345.74.511 1.111l.028.065c.009.023.023.046.032.073a33.935 33.935 0 0 1 1.018 2.645c.073.225.138.45.207.675.032.096.06.192.087.293.051.166.106.331.152.496.152.551.29 1.097.405 1.648.069.331.116.661.171.992.032.174.064.344.087.514.023.161.065.322.083.482.125.951.184 1.887.184 2.81-.013 4.527-1.616 7.708-4.199 9.205l-4.416 2.557c2.583-1.496 4.185-4.678 4.199-9.205a21.103 21.103 0 0 0-.267-3.287c-.023-.193-.055-.367-.087-.542Z"/><path fill="url(#bJ)" d="M195.594 479.729c7.939 4.568 14.377 15.665 14.349 24.783-.027 9.118-6.507 12.777-14.445 8.209-7.958-4.582-14.396-15.674-14.373-24.792.033-9.118 6.512-12.777 14.469-8.2Z"/><path fill="url(#bK)" d="M371.925 435.353c.009-3.366 2.418-4.711 5.356-3.021l14.579 8.392c2.938 1.694 5.309 5.79 5.3 9.155l-.046 16.697c-.009 3.393-2.394 4.747-5.337 3.053l-14.579-8.392c-2.938-1.69-5.333-5.798-5.324-9.191l.051-16.693Z"/><path fill="url(#bL)" d="M376.105 431.817a4.7 4.7 0 0 0-.88-.192c-.028 0-.051-.005-.078-.01a3.124 3.124 0 0 0-.861.046c-.014.005-.028.005-.042.01a2.717 2.717 0 0 0-.773.289l4.416-2.557a.111.111 0 0 0 .027-.019c.088-.05.175-.092.268-.133.092-.037.184-.069.28-.101.06-.018.129-.032.194-.046.014-.004.027-.009.046-.009l.064-.014c.106-.018.212-.032.323-.037.115-.009.235-.009.354-.004.037 0 .079.009.12.014.028 0 .051.004.078.009.069.009.134.009.203.018.156.023.313.055.47.101.064.019.138.051.202.069.065.018.125.041.189.064.078.028.157.046.239.083.245.101.493.225.747.372l14.579 8.392c.566.326 1.105.762 1.616 1.249.051.046.111.078.161.124.069.069.134.142.198.211.06.06.12.124.18.188.069.074.138.143.203.216.147.17.29.345.432.524.051.064.093.128.143.192.023.033.046.065.074.097.046.064.097.124.138.188.106.152.207.303.309.459.092.147.184.299.276.45.009.014.014.028.023.037.009.014.014.027.023.037.069.123.143.247.207.371.078.147.157.299.23.45.065.138.129.276.189.414l.014.027c.005.009.005.014.009.023a11.593 11.593 0 0 1 .373.978c.028.083.051.17.079.252.013.037.022.074.032.111l.055.179c.055.202.106.404.152.606.028.124.041.243.064.367l.033.193c.009.059.023.115.032.174.046.354.069.698.069 1.038l-.046 16.702c-.005 1.689-.599 2.869-1.557 3.425l-4.416 2.557c.958-.555 1.552-1.74 1.557-3.425l.046-16.697a8.52 8.52 0 0 0-.097-1.217c-.009-.064-.023-.129-.032-.188a9.611 9.611 0 0 0-.267-1.157c-.009-.037-.023-.074-.032-.11a11.525 11.525 0 0 0-.461-1.249c-.005-.009-.009-.014-.009-.023a13.088 13.088 0 0 0-.626-1.24l-.019-.032a13.63 13.63 0 0 0-.741-1.134c-.023-.032-.046-.064-.074-.096a11.064 11.064 0 0 0-.778-.932c-.06-.064-.115-.124-.175-.184-.115-.124-.244-.225-.364-.34-.511-.482-1.05-.922-1.616-1.248l-14.58-8.393a6.398 6.398 0 0 0-.985-.454c-.083-.023-.143-.046-.207-.065Z"/><path fill="url(#bM)" d="m30.006 203.005 14.58-8.393c2.937-1.694 7.722-1.694 10.641 0l14.483 8.393c2.92 1.689 2.883 4.444-.055 6.133l-14.58 8.393c-2.938 1.689-7.68 1.689-10.605 0l-14.483-8.393c-2.92-1.689-2.92-4.444.019-6.133Z"/><path fill="url(#bN)" d="M27.93 206.856c.009.028.014.056.023.083.083.239.207.473.359.703l.083.123c.166.225.364.446.598.657.152.138.346.262.53.39.157.11.29.225.465.331l14.483 8.392c.677.39 1.469.671 2.298.882.12.032.234.064.359.087a12.06 12.06 0 0 0 2.588.289h.096a12.358 12.358 0 0 0 2.722-.307c.032-.01.07-.019.101-.028.885-.211 1.718-.519 2.436-.932l14.58-8.392c1.483-.854 2.228-1.979 2.224-3.099l.014 5.091c.004 1.12-.742 2.245-2.225 3.099l-14.579 8.392c-.34.198-.7.368-1.082.519-.295.115-.599.216-.912.308-.143.041-.294.073-.442.105l-.106.028c-.078.018-.156.041-.235.06a12.942 12.942 0 0 1-2.205.252h-.373c-.13 0-.263.005-.392 0a11.942 11.942 0 0 1-.829-.055c-.322-.032-.64-.078-.958-.133-.142-.028-.271-.073-.41-.101-.124-.028-.239-.06-.359-.087-.216-.055-.442-.097-.649-.161a8.75 8.75 0 0 1-1.644-.721l-14.482-8.392c-.033-.019-.06-.037-.093-.055-.147-.087-.248-.188-.377-.28-.18-.129-.373-.253-.525-.391-.014-.013-.037-.023-.05-.036a4.767 4.767 0 0 1-.47-.501c-.033-.036-.051-.078-.083-.119-.033-.041-.056-.083-.083-.124-.046-.069-.102-.138-.139-.207a3.514 3.514 0 0 1-.202-.427c-.01-.023-.01-.045-.018-.064-.01-.027-.014-.055-.023-.083-.028-.091-.06-.183-.079-.275a2.751 2.751 0 0 1-.05-.432v-.064l-.014-5.091c0 .252.05.509.129.766Z"/><path fill="url(#bO)" d="M336.258 203.57c.018.211.032.427.073.638.033.174.088.349.129.523.056.202.102.404.175.602.06.165.139.33.208.495.092.212.184.423.299.634.083.151.18.298.272.45.147.239.304.473.479.707a11.672 11.672 0 0 0 1.188 1.331c.11.11.216.221.336.326.193.175.414.345.626.519.184.147.364.298.562.441.23.17.488.33.737.491.253.165.492.335.769.491.879.51 1.837.941 2.827 1.336.258.106.521.202.788.299.612.22 1.257.399 1.897.578.668.188 1.34.363 2.035.505.815.165 1.635.317 2.478.423.198.022.396.059.594.082 1.128.119 2.27.179 3.417.188.184 0 .363.005.543.005a36.015 36.015 0 0 0 3.371-.188l.506-.055a32.846 32.846 0 0 0 3.265-.56c.194-.046.387-.097.581-.143a27.334 27.334 0 0 0 2.813-.854c.166-.059.341-.105.502-.17a22.162 22.162 0 0 0 3.095-1.455c3.997-2.3 5.991-5.326 5.981-8.346l.014 5.091c.01 3.021-1.984 6.046-5.982 8.347a21.77 21.77 0 0 1-2.928 1.4c-.056.023-.111.036-.166.055-.161.064-.336.11-.502.17-.589.216-1.184.431-1.801.606-.331.096-.676.165-1.017.248-.194.046-.387.096-.58.142-.175.041-.346.092-.525.129-.664.137-1.336.252-2.017.348-.24.033-.484.051-.723.083l-.507.055c-.249.028-.497.064-.746.083a31.98 31.98 0 0 1-2.003.105c-.207.005-.415-.004-.622-.004-.179 0-.359 0-.539-.005-.308-.004-.612.005-.921-.004a36.658 36.658 0 0 1-2.256-.152c-.083-.009-.161-.027-.244-.032-.203-.023-.396-.055-.594-.083-.585-.073-1.174-.137-1.75-.243-.249-.046-.479-.129-.728-.179a28.388 28.388 0 0 1-2.03-.505c-.355-.101-.737-.156-1.083-.271-.28-.092-.543-.211-.819-.312a36.217 36.217 0 0 1-.783-.294c-.99-.395-1.953-.826-2.832-1.336a6.473 6.473 0 0 1-.249-.147c-.189-.11-.345-.234-.525-.349-.248-.16-.502-.317-.732-.486-.203-.147-.382-.299-.566-.45-.212-.17-.429-.335-.622-.51-.037-.037-.087-.069-.124-.101-.079-.073-.134-.151-.212-.225-.313-.303-.599-.61-.861-.923-.056-.069-.134-.133-.189-.202-.055-.069-.088-.137-.138-.206a9.565 9.565 0 0 1-.479-.707c-.06-.101-.143-.198-.203-.299-.027-.05-.046-.105-.073-.156-.116-.206-.203-.418-.295-.629-.055-.124-.124-.243-.171-.367-.013-.041-.023-.087-.036-.129-.069-.202-.12-.399-.175-.601-.037-.138-.092-.276-.12-.413-.009-.037-.005-.074-.014-.11-.041-.212-.055-.423-.074-.634-.013-.138-.046-.28-.046-.418 0-.059-.004-.119-.004-.179l-.014-5.091c.009.197.041.399.06.597Z"/><path fill="url(#bP)" d="M342.204 194.617c7.939-4.568 20.814-4.568 28.721.014 7.888 4.568 7.847 12.005-.092 16.573-7.957 4.582-20.833 4.582-28.721.01-7.907-4.582-7.865-12.015.092-16.597Z"/></g><defs><linearGradient id="b" x1="168.914" x2="6.102" y1="209.697" y2="308.042" gradientUnits="userSpaceOnUse"><stop stop-color="#00D6FF"/><stop offset=".135" stop-color="#23B8F2"/><stop offset=".738" stop-color="#BC35B9"/><stop offset="1" stop-color="#F900A2"/></linearGradient><linearGradient id="c" x1="289.762" x2="454.394" y1="286.141" y2="191.486" gradientUnits="userSpaceOnUse"><stop stop-color="#00D6FF"/><stop offset=".135" stop-color="#23B8F2"/><stop offset=".738" stop-color="#BC35B9"/><stop offset="1" stop-color="#F900A2"/></linearGradient><linearGradient id="d" x1="484.058" x2="389.17" y1="454.276" y2="508.832" gradientUnits="userSpaceOnUse"><stop stop-color="#00D6FF"/><stop offset=".135" stop-color="#23B8F2"/><stop offset=".738" stop-color="#BC35B9"/><stop offset="1" stop-color="#F900A2"/></linearGradient><linearGradient id="e" x1="4.453" x2="144.777" y1="429.542" y2="514.353" gradientUnits="userSpaceOnUse"><stop stop-color="#00D6FF"/><stop offset=".135" stop-color="#23B8F2"/><stop offset=".738" stop-color="#BC35B9"/><stop offset="1" stop-color="#F900A2"/></linearGradient><linearGradient id="f" x1="124.043" x2="719.978" y1="214.521" y2="214.521" gradientUnits="userSpaceOnUse"><stop stop-color="#397FE5"/><stop offset=".408" stop-color="#6253C9"/><stop offset="1" stop-color="#9B16A2"/></linearGradient><linearGradient id="g" x1="207.134" x2="179.339" y1="90.878" y2="146.636" gradientUnits="userSpaceOnUse"><stop stop-color="#00D6FF"/><stop offset=".135" stop-color="#23B8F2"/><stop offset=".738" stop-color="#BC35B9"/><stop offset="1" stop-color="#F900A2"/></linearGradient><linearGradient id="h" x1="133.053" x2="266.408" y1="211.11" y2="211.11" gradientUnits="userSpaceOnUse"><stop stop-color="#4743B7"/><stop offset=".077" stop-color="#493EB5"/><stop offset="1" stop-color="#66019C"/></linearGradient><linearGradient id="i" x1="174.783" x2="210.497" y1="306.796" y2="367.129" gradientUnits="userSpaceOnUse"><stop stop-color="#CBE3FF"/><stop offset="1" stop-color="#699CFF"/></linearGradient><linearGradient id="j" x1="255.605" x2="162.361" y1="10.22" y2="201.769" gradientUnits="userSpaceOnUse"><stop stop-color="#00D6FF"/><stop offset=".135" stop-color="#23B8F2"/><stop offset=".738" stop-color="#BC35B9"/><stop offset="1" stop-color="#F900A2"/></linearGradient><linearGradient id="k" x1="257.309" x2="143.134" y1="51.369" y2="370.963" gradientUnits="userSpaceOnUse"><stop stop-color="#00D6FF"/><stop offset=".135" stop-color="#23B8F2"/><stop offset=".738" stop-color="#BC35B9"/><stop offset="1" stop-color="#F900A2"/></linearGradient><linearGradient id="l" x1="333.373" x2="168.014" y1="402.929" y2="402.929" gradientUnits="userSpaceOnUse"><stop stop-color="#00D6FF"/><stop offset=".135" stop-color="#23B8F2"/><stop offset=".738" stop-color="#BC35B9"/><stop offset="1" stop-color="#F900A2"/></linearGradient><linearGradient id="m" x1="232.786" x2="384.429" y1="401.553" y2="401.553" gradientUnits="userSpaceOnUse"><stop stop-color="#397FE5"/><stop offset=".408" stop-color="#6253C9"/><stop offset="1" stop-color="#9B16A2"/></linearGradient><linearGradient id="n" x1="229.055" x2="286.444" y1="423.538" y2="423.538" gradientUnits="userSpaceOnUse"><stop stop-color="#4743B7"/><stop offset=".077" stop-color="#493EB5"/><stop offset="1" stop-color="#66019C"/></linearGradient><linearGradient id="o" x1="232.786" x2="384.429" y1="396.496" y2="396.496" gradientUnits="userSpaceOnUse"><stop stop-color="#397FE5"/><stop offset=".408" stop-color="#6253C9"/><stop offset="1" stop-color="#9B16A2"/></linearGradient><linearGradient id="p" x1="229.055" x2="286.444" y1="418.48" y2="418.48" gradientUnits="userSpaceOnUse"><stop stop-color="#4743B7"/><stop offset=".077" stop-color="#493EB5"/><stop offset="1" stop-color="#66019C"/></linearGradient><linearGradient id="q" x1="204.332" x2="429.969" y1="376.245" y2="376.245" gradientUnits="userSpaceOnUse"><stop stop-color="#397FE5"/><stop offset=".408" stop-color="#6253C9"/><stop offset="1" stop-color="#9B16A2"/></linearGradient><linearGradient id="r" x1="238.968" x2="282.351" y1="401.9" y2="401.9" gradientUnits="userSpaceOnUse"><stop stop-color="#4743B7"/><stop offset=".077" stop-color="#493EB5"/><stop offset="1" stop-color="#66019C"/></linearGradient><linearGradient id="s" x1="201.372" x2="200.324" y1="406.463" y2="408.927" gradientUnits="userSpaceOnUse"><stop stop-color="#00D6FF"/><stop offset=".135" stop-color="#23B8F2"/><stop offset=".738" stop-color="#BC35B9"/><stop offset="1" stop-color="#F900A2"/></linearGradient><linearGradient id="t" x1="199.183" x2="235.122" y1="404.847" y2="410.768" gradientUnits="userSpaceOnUse"><stop stop-color="#00D6FF"/><stop offset=".135" stop-color="#23B8F2"/><stop offset=".738" stop-color="#BC35B9"/><stop offset="1" stop-color="#F900A2"/></linearGradient><linearGradient id="u" x1="198.83" x2="198.569" y1="405.694" y2="411.71" gradientUnits="userSpaceOnUse"><stop stop-color="#00D6FF"/><stop offset=".135" stop-color="#23B8F2"/><stop offset=".738" stop-color="#BC35B9"/><stop offset="1" stop-color="#F900A2"/></linearGradient><linearGradient id="v" x1="208.939" x2="199.076" y1="399.542" y2="406.458" gradientUnits="userSpaceOnUse"><stop stop-color="#00D6FF"/><stop offset=".135" stop-color="#23B8F2"/><stop offset=".738" stop-color="#BC35B9"/><stop offset="1" stop-color="#F900A2"/></linearGradient><linearGradient id="w" x1="208.124" x2="207.075" y1="410.368" y2="412.832" gradientUnits="userSpaceOnUse"><stop stop-color="#00D6FF"/><stop offset=".135" stop-color="#23B8F2"/><stop offset=".738" stop-color="#BC35B9"/><stop offset="1" stop-color="#F900A2"/></linearGradient><linearGradient id="x" x1="205.935" x2="241.874" y1="408.753" y2="414.674" gradientUnits="userSpaceOnUse"><stop stop-color="#00D6FF"/><stop offset=".135" stop-color="#23B8F2"/><stop offset=".738" stop-color="#BC35B9"/><stop offset="1" stop-color="#F900A2"/></linearGradient><linearGradient id="y" x1="205.583" x2="205.322" y1="409.6" y2="415.616" gradientUnits="userSpaceOnUse"><stop stop-color="#00D6FF"/><stop offset=".135" stop-color="#23B8F2"/><stop offset=".738" stop-color="#BC35B9"/><stop offset="1" stop-color="#F900A2"/></linearGradient><linearGradient id="z" x1="215.69" x2="205.827" y1="403.448" y2="410.364" gradientUnits="userSpaceOnUse"><stop stop-color="#00D6FF"/><stop offset=".135" stop-color="#23B8F2"/><stop offset=".738" stop-color="#BC35B9"/><stop offset="1" stop-color="#F900A2"/></linearGradient><linearGradient id="A" x1="214.877" x2="213.829" y1="414.275" y2="416.738" gradientUnits="userSpaceOnUse"><stop stop-color="#00D6FF"/><stop offset=".135" stop-color="#23B8F2"/><stop offset=".738" stop-color="#BC35B9"/><stop offset="1" stop-color="#F900A2"/></linearGradient><linearGradient id="B" x1="212.688" x2="248.626" y1="412.659" y2="418.579" gradientUnits="userSpaceOnUse"><stop stop-color="#00D6FF"/><stop offset=".135" stop-color="#23B8F2"/><stop offset=".738" stop-color="#BC35B9"/><stop offset="1" stop-color="#F900A2"/></linearGradient><linearGradient id="C" x1="212.337" x2="212.076" y1="413.505" y2="419.522" gradientUnits="userSpaceOnUse"><stop stop-color="#00D6FF"/><stop offset=".135" stop-color="#23B8F2"/><stop offset=".738" stop-color="#BC35B9"/><stop offset="1" stop-color="#F900A2"/></linearGradient><linearGradient id="D" x1="222.443" x2="212.58" y1="407.353" y2="414.27" gradientUnits="userSpaceOnUse"><stop stop-color="#00D6FF"/><stop offset=".135" stop-color="#23B8F2"/><stop offset=".738" stop-color="#BC35B9"/><stop offset="1" stop-color="#F900A2"/></linearGradient><linearGradient id="E" x1="221.63" x2="220.582" y1="418.181" y2="420.644" gradientUnits="userSpaceOnUse"><stop stop-color="#00D6FF"/><stop offset=".135" stop-color="#23B8F2"/><stop offset=".738" stop-color="#BC35B9"/><stop offset="1" stop-color="#F900A2"/></linearGradient><linearGradient id="F" x1="219.441" x2="255.38" y1="416.565" y2="422.486" gradientUnits="userSpaceOnUse"><stop stop-color="#00D6FF"/><stop offset=".135" stop-color="#23B8F2"/><stop offset=".738" stop-color="#BC35B9"/><stop offset="1" stop-color="#F900A2"/></linearGradient><linearGradient id="G" x1="219.088" x2="218.827" y1="417.412" y2="423.428" gradientUnits="userSpaceOnUse"><stop stop-color="#00D6FF"/><stop offset=".135" stop-color="#23B8F2"/><stop offset=".738" stop-color="#BC35B9"/><stop offset="1" stop-color="#F900A2"/></linearGradient><linearGradient id="H" x1="229.196" x2="219.333" y1="411.26" y2="418.176" gradientUnits="userSpaceOnUse"><stop stop-color="#00D6FF"/><stop offset=".135" stop-color="#23B8F2"/><stop offset=".738" stop-color="#BC35B9"/><stop offset="1" stop-color="#F900A2"/></linearGradient><linearGradient id="I" x1="228.379" x2="227.331" y1="422.087" y2="424.55" gradientUnits="userSpaceOnUse"><stop stop-color="#00D6FF"/><stop offset=".135" stop-color="#23B8F2"/><stop offset=".738" stop-color="#BC35B9"/><stop offset="1" stop-color="#F900A2"/></linearGradient><linearGradient id="J" x1="226.19" x2="262.129" y1="420.471" y2="426.391" gradientUnits="userSpaceOnUse"><stop stop-color="#00D6FF"/><stop offset=".135" stop-color="#23B8F2"/><stop offset=".738" stop-color="#BC35B9"/><stop offset="1" stop-color="#F900A2"/></linearGradient><linearGradient id="K" x1="225.839" x2="225.578" y1="421.318" y2="427.334" gradientUnits="userSpaceOnUse"><stop stop-color="#00D6FF"/><stop offset=".135" stop-color="#23B8F2"/><stop offset=".738" stop-color="#BC35B9"/><stop offset="1" stop-color="#F900A2"/></linearGradient><linearGradient id="L" x1="235.946" x2="226.083" y1="415.165" y2="422.081" gradientUnits="userSpaceOnUse"><stop stop-color="#00D6FF"/><stop offset=".135" stop-color="#23B8F2"/><stop offset=".738" stop-color="#BC35B9"/><stop offset="1" stop-color="#F900A2"/></linearGradient><linearGradient id="M" x1="235.133" x2="234.085" y1="425.992" y2="428.456" gradientUnits="userSpaceOnUse"><stop stop-color="#00D6FF"/><stop offset=".135" stop-color="#23B8F2"/><stop offset=".738" stop-color="#BC35B9"/><stop offset="1" stop-color="#F900A2"/></linearGradient><linearGradient id="N" x1="232.944" x2="268.883" y1="424.377" y2="430.297" gradientUnits="userSpaceOnUse"><stop stop-color="#00D6FF"/><stop offset=".135" stop-color="#23B8F2"/><stop offset=".738" stop-color="#BC35B9"/><stop offset="1" stop-color="#F900A2"/></linearGradient><linearGradient id="O" x1="232.592" x2="232.331" y1="425.224" y2="431.239" gradientUnits="userSpaceOnUse"><stop stop-color="#00D6FF"/><stop offset=".135" stop-color="#23B8F2"/><stop offset=".738" stop-color="#BC35B9"/><stop offset="1" stop-color="#F900A2"/></linearGradient><linearGradient id="P" x1="242.699" x2="232.836" y1="419.071" y2="425.987" gradientUnits="userSpaceOnUse"><stop stop-color="#00D6FF"/><stop offset=".135" stop-color="#23B8F2"/><stop offset=".738" stop-color="#BC35B9"/><stop offset="1" stop-color="#F900A2"/></linearGradient><linearGradient id="Q" x1="315.573" x2="316.621" y1="406.463" y2="408.927" gradientUnits="userSpaceOnUse"><stop stop-color="#00D6FF"/><stop offset=".135" stop-color="#23B8F2"/><stop offset=".738" stop-color="#BC35B9"/><stop offset="1" stop-color="#F900A2"/></linearGradient><linearGradient id="R" x1="317.76" x2="281.821" y1="404.847" y2="410.768" gradientUnits="userSpaceOnUse"><stop stop-color="#00D6FF"/><stop offset=".135" stop-color="#23B8F2"/><stop offset=".738" stop-color="#BC35B9"/><stop offset="1" stop-color="#F900A2"/></linearGradient><linearGradient id="S" x1="318.115" x2="318.376" y1="405.694" y2="411.71" gradientUnits="userSpaceOnUse"><stop stop-color="#00D6FF"/><stop offset=".135" stop-color="#23B8F2"/><stop offset=".738" stop-color="#BC35B9"/><stop offset="1" stop-color="#F900A2"/></linearGradient><linearGradient id="T" x1="308.008" x2="317.871" y1="399.542" y2="406.458" gradientUnits="userSpaceOnUse"><stop stop-color="#00D6FF"/><stop offset=".135" stop-color="#23B8F2"/><stop offset=".738" stop-color="#BC35B9"/><stop offset="1" stop-color="#F900A2"/></linearGradient><linearGradient id="U" x1="308.82" x2="309.869" y1="410.368" y2="412.832" gradientUnits="userSpaceOnUse"><stop stop-color="#00D6FF"/><stop offset=".135" stop-color="#23B8F2"/><stop offset=".738" stop-color="#BC35B9"/><stop offset="1" stop-color="#F900A2"/></linearGradient><linearGradient id="V" x1="311.007" x2="275.068" y1="408.753" y2="414.674" gradientUnits="userSpaceOnUse"><stop stop-color="#00D6FF"/><stop offset=".135" stop-color="#23B8F2"/><stop offset=".738" stop-color="#BC35B9"/><stop offset="1" stop-color="#F900A2"/></linearGradient><linearGradient id="W" x1="311.362" x2="311.623" y1="409.6" y2="415.616" gradientUnits="userSpaceOnUse"><stop stop-color="#00D6FF"/><stop offset=".135" stop-color="#23B8F2"/><stop offset=".738" stop-color="#BC35B9"/><stop offset="1" stop-color="#F900A2"/></linearGradient><linearGradient id="X" x1="301.255" x2="311.118" y1="403.448" y2="410.364" gradientUnits="userSpaceOnUse"><stop stop-color="#00D6FF"/><stop offset=".135" stop-color="#23B8F2"/><stop offset=".738" stop-color="#BC35B9"/><stop offset="1" stop-color="#F900A2"/></linearGradient><linearGradient id="Y" x1="302.071" x2="303.119" y1="414.274" y2="416.738" gradientUnits="userSpaceOnUse"><stop stop-color="#00D6FF"/><stop offset=".135" stop-color="#23B8F2"/><stop offset=".738" stop-color="#BC35B9"/><stop offset="1" stop-color="#F900A2"/></linearGradient><linearGradient id="Z" x1="304.257" x2="268.318" y1="412.659" y2="418.58" gradientUnits="userSpaceOnUse"><stop stop-color="#00D6FF"/><stop offset=".135" stop-color="#23B8F2"/><stop offset=".738" stop-color="#BC35B9"/><stop offset="1" stop-color="#F900A2"/></linearGradient><linearGradient id="aa" x1="304.612" x2="304.873" y1="413.506" y2="419.522" gradientUnits="userSpaceOnUse"><stop stop-color="#00D6FF"/><stop offset=".135" stop-color="#23B8F2"/><stop offset=".738" stop-color="#BC35B9"/><stop offset="1" stop-color="#F900A2"/></linearGradient><linearGradient id="ab" x1="294.505" x2="304.368" y1="407.353" y2="414.27" gradientUnits="userSpaceOnUse"><stop stop-color="#00D6FF"/><stop offset=".135" stop-color="#23B8F2"/><stop offset=".738" stop-color="#BC35B9"/><stop offset="1" stop-color="#F900A2"/></linearGradient><linearGradient id="ac" x1="295.318" x2="296.366" y1="418.181" y2="420.644" gradientUnits="userSpaceOnUse"><stop stop-color="#00D6FF"/><stop offset=".135" stop-color="#23B8F2"/><stop offset=".738" stop-color="#BC35B9"/><stop offset="1" stop-color="#F900A2"/></linearGradient><linearGradient id="ad" x1="297.506" x2="261.569" y1="416.565" y2="422.485" gradientUnits="userSpaceOnUse"><stop stop-color="#00D6FF"/><stop offset=".135" stop-color="#23B8F2"/><stop offset=".738" stop-color="#BC35B9"/><stop offset="1" stop-color="#F900A2"/></linearGradient><linearGradient id="ae" x1="297.859" x2="298.119" y1="417.412" y2="423.428" gradientUnits="userSpaceOnUse"><stop stop-color="#00D6FF"/><stop offset=".135" stop-color="#23B8F2"/><stop offset=".738" stop-color="#BC35B9"/><stop offset="1" stop-color="#F900A2"/></linearGradient><linearGradient id="af" x1="287.752" x2="297.615" y1="411.259" y2="418.176" gradientUnits="userSpaceOnUse"><stop stop-color="#00D6FF"/><stop offset=".135" stop-color="#23B8F2"/><stop offset=".738" stop-color="#BC35B9"/><stop offset="1" stop-color="#F900A2"/></linearGradient><linearGradient id="ag" x1="288.565" x2="289.613" y1="422.087" y2="424.55" gradientUnits="userSpaceOnUse"><stop stop-color="#00D6FF"/><stop offset=".135" stop-color="#23B8F2"/><stop offset=".738" stop-color="#BC35B9"/><stop offset="1" stop-color="#F900A2"/></linearGradient><linearGradient id="ah" x1="290.751" x2="254.812" y1="420.471" y2="426.391" gradientUnits="userSpaceOnUse"><stop stop-color="#00D6FF"/><stop offset=".135" stop-color="#23B8F2"/><stop offset=".738" stop-color="#BC35B9"/><stop offset="1" stop-color="#F900A2"/></linearGradient><linearGradient id="ai" x1="291.106" x2="291.367" y1="421.318" y2="427.334" gradientUnits="userSpaceOnUse"><stop stop-color="#00D6FF"/><stop offset=".135" stop-color="#23B8F2"/><stop offset=".738" stop-color="#BC35B9"/><stop offset="1" stop-color="#F900A2"/></linearGradient><linearGradient id="aj" x1="280.999" x2="290.862" y1="415.165" y2="422.081" gradientUnits="userSpaceOnUse"><stop stop-color="#00D6FF"/><stop offset=".135" stop-color="#23B8F2"/><stop offset=".738" stop-color="#BC35B9"/><stop offset="1" stop-color="#F900A2"/></linearGradient><linearGradient id="ak" x1="281.814" x2="282.862" y1="425.993" y2="428.457" gradientUnits="userSpaceOnUse"><stop stop-color="#00D6FF"/><stop offset=".135" stop-color="#23B8F2"/><stop offset=".738" stop-color="#BC35B9"/><stop offset="1" stop-color="#F900A2"/></linearGradient><linearGradient id="al" x1="284" x2="248.06" y1="424.377" y2="430.298" gradientUnits="userSpaceOnUse"><stop stop-color="#00D6FF"/><stop offset=".135" stop-color="#23B8F2"/><stop offset=".738" stop-color="#BC35B9"/><stop offset="1" stop-color="#F900A2"/></linearGradient><linearGradient id="am" x1="284.355" x2="284.615" y1="425.224" y2="431.24" gradientUnits="userSpaceOnUse"><stop stop-color="#00D6FF"/><stop offset=".135" stop-color="#23B8F2"/><stop offset=".738" stop-color="#BC35B9"/><stop offset="1" stop-color="#F900A2"/></linearGradient><linearGradient id="an" x1="274.248" x2="284.111" y1="419.072" y2="425.988" gradientUnits="userSpaceOnUse"><stop stop-color="#00D6FF"/><stop offset=".135" stop-color="#23B8F2"/><stop offset=".738" stop-color="#BC35B9"/><stop offset="1" stop-color="#F900A2"/></linearGradient><linearGradient id="ao" x1="277.039" x2="281.53" y1="425.66" y2="417.913" gradientUnits="userSpaceOnUse"><stop stop-color="#9881DC"/><stop offset=".562" stop-color="#9A90BE"/><stop offset="1" stop-color="#9B9AAC"/></linearGradient><linearGradient id="ap" x1="283.793" x2="288.285" y1="421.761" y2="414.013" gradientUnits="userSpaceOnUse"><stop stop-color="#9881DC"/><stop offset=".562" stop-color="#9A90BE"/><stop offset="1" stop-color="#9B9AAC"/></linearGradient><linearGradient id="aq" x1="290.548" x2="295.039" y1="417.86" y2="410.113" gradientUnits="userSpaceOnUse"><stop stop-color="#9881DC"/><stop offset=".562" stop-color="#9A90BE"/><stop offset="1" stop-color="#9B9AAC"/></linearGradient><linearGradient id="ar" x1="297.303" x2="301.794" y1="413.96" y2="406.213" gradientUnits="userSpaceOnUse"><stop stop-color="#9881DC"/><stop offset=".562" stop-color="#9A90BE"/><stop offset="1" stop-color="#9B9AAC"/></linearGradient><linearGradient id="as" x1="304.056" x2="308.548" y1="410.061" y2="402.312" gradientUnits="userSpaceOnUse"><stop stop-color="#9881DC"/><stop offset=".562" stop-color="#9A90BE"/><stop offset="1" stop-color="#9B9AAC"/></linearGradient><linearGradient id="at" x1="310.81" x2="315.301" y1="406.161" y2="398.414" gradientUnits="userSpaceOnUse"><stop stop-color="#9881DC"/><stop offset=".562" stop-color="#9A90BE"/><stop offset="1" stop-color="#9B9AAC"/></linearGradient><linearGradient id="au" x1="261.391" x2="209.721" y1="211.485" y2="211.485" gradientUnits="userSpaceOnUse"><stop stop-color="#fff"/><stop offset="1" stop-color="#7AB8F3"/></linearGradient><linearGradient id="av" x1="259.739" x2="207.884" y1="116.355" y2="116.355" gradientUnits="userSpaceOnUse"><stop stop-color="#00D6FF"/><stop offset=".135" stop-color="#23B8F2"/><stop offset=".738" stop-color="#BC35B9"/><stop offset="1" stop-color="#F900A2"/></linearGradient><linearGradient id="aw" x1="215.954" x2="260.141" y1="99.853" y2="160.592" gradientUnits="userSpaceOnUse"><stop stop-color="#fff"/><stop offset="1" stop-color="#4E7EFC"/></linearGradient><linearGradient id="ax" x1="172.429" x2="245.354" y1="240.868" y2="240.868" gradientUnits="userSpaceOnUse"><stop stop-color="#fff"/><stop offset="1" stop-color="#7AB8F3"/></linearGradient><linearGradient id="ay" x1="192.907" x2="207.799" y1="342.776" y2="342.836" gradientUnits="userSpaceOnUse"><stop stop-color="#85B5FC"/><stop offset="1" stop-color="#1B52F0"/></linearGradient><linearGradient id="az" x1="188.698" x2="212.109" y1="325.716" y2="325.81" gradientUnits="userSpaceOnUse"><stop stop-color="#fff"/><stop offset="1" stop-color="#7AB8F3"/></linearGradient><linearGradient id="aA" x1="195.128" x2="205.126" y1="298.293" y2="314.773" gradientUnits="userSpaceOnUse"><stop stop-color="#CE9FFC"/><stop offset="1" stop-color="#7367F0"/></linearGradient><linearGradient id="aB" x1="325.919" x2="273.017" y1="276.767" y2="276.767" gradientUnits="userSpaceOnUse"><stop stop-color="#fff"/><stop offset="1" stop-color="#7AB8F3"/></linearGradient><linearGradient id="aC" x1="343.072" x2="295.121" y1="261.567" y2="261.375" gradientUnits="userSpaceOnUse"><stop stop-color="#F1DDFC"/><stop offset="1" stop-color="#82C0F0"/></linearGradient><linearGradient id="aD" x1="288.447" x2="303.341" y1="331.356" y2="331.416" gradientUnits="userSpaceOnUse"><stop stop-color="#fff"/><stop offset="1" stop-color="#7AB8F3"/></linearGradient><linearGradient id="aE" x1="317.85" x2="291.679" y1="314.321" y2="314.321" gradientUnits="userSpaceOnUse"><stop stop-color="#00D6FF"/><stop offset=".135" stop-color="#23B8F2"/><stop offset=".738" stop-color="#BC35B9"/><stop offset="1" stop-color="#F900A2"/></linearGradient><linearGradient id="aF" x1="289.062" x2="301.891" y1="293.146" y2="297.887" gradientUnits="userSpaceOnUse"><stop stop-color="#00D6FF"/><stop offset=".135" stop-color="#23B8F2"/><stop offset=".738" stop-color="#BC35B9"/><stop offset="1" stop-color="#F900A2"/></linearGradient><linearGradient id="aG" x1="284.747" x2="309.106" y1="334.06" y2="260.365" gradientUnits="userSpaceOnUse"><stop stop-color="#CDDDFC"/><stop offset="1" stop-color="#82C0F0"/></linearGradient><linearGradient id="aH" x1="288.114" x2="298.291" y1="301.125" y2="270.337" gradientUnits="userSpaceOnUse"><stop stop-color="#fff"/><stop offset="1" stop-color="#7AB8F3"/></linearGradient><linearGradient id="aI" x1="235.561" x2="184.679" y1="269.629" y2="269.629" gradientUnits="userSpaceOnUse"><stop stop-color="#00D6FF"/><stop offset=".135" stop-color="#23B8F2"/><stop offset=".738" stop-color="#BC35B9"/><stop offset="1" stop-color="#F900A2"/></linearGradient><linearGradient id="aJ" x1="181.881" x2="217.9" y1="269.341" y2="269.712" gradientUnits="userSpaceOnUse"><stop stop-color="#fff"/><stop offset="1" stop-color="#D3C4F3"/></linearGradient><linearGradient id="aK" x1="184.676" x2="198.694" y1="269.166" y2="269.223" gradientUnits="userSpaceOnUse"><stop stop-color="#89A7F3"/><stop offset="1"/></linearGradient><linearGradient id="aL" x1="185.247" x2="216.772" y1="205.527" y2="205.654" gradientUnits="userSpaceOnUse"><stop stop-color="#fff"/><stop offset="1" stop-color="#7AB8F3"/></linearGradient><linearGradient id="aM" x1="195.744" x2="214.178" y1="193.219" y2="252.355" gradientUnits="userSpaceOnUse"><stop stop-color="#fff"/><stop offset="1" stop-color="#64A7F3"/></linearGradient><linearGradient id="aN" x1="185.155" x2="216.687" y1="226.615" y2="226.741" gradientUnits="userSpaceOnUse"><stop stop-color="#CE9FFC"/><stop offset="1" stop-color="#fff"/></linearGradient><linearGradient id="aO" x1="292.623" x2="227.753" y1="284.811" y2="284.811" gradientUnits="userSpaceOnUse"><stop stop-color="#fff"/><stop offset="1" stop-color="#7AB8F3"/></linearGradient><linearGradient id="aP" x1="264.774" x2="295.539" y1="284.134" y2="284.134" gradientUnits="userSpaceOnUse"><stop stop-color="#fff"/><stop offset="1" stop-color="#7AB8F3"/></linearGradient><linearGradient id="aQ" x1="288.117" x2="225.924" y1="201.457" y2="201.457" gradientUnits="userSpaceOnUse"><stop stop-color="#00D6FF"/><stop offset=".135" stop-color="#23B8F2"/><stop offset=".738" stop-color="#BC35B9"/><stop offset="1" stop-color="#F900A2"/></linearGradient><linearGradient id="aR" x1="237.819" x2="289.236" y1="182.251" y2="252.928" gradientUnits="userSpaceOnUse"><stop stop-color="#fff"/><stop offset="1" stop-color="#4E7EFC"/></linearGradient><linearGradient id="aS" x1="187.953" x2="211.903" y1="332.022" y2="332.268" gradientUnits="userSpaceOnUse"><stop stop-color="#F1DDFC"/><stop offset="1" stop-color="#AE9FF0"/></linearGradient><linearGradient id="aT" x1="225.337" x2="292.065" y1="284.646" y2="284.914" gradientUnits="userSpaceOnUse"><stop stop-color="#fff"/><stop offset="1" stop-color="#7AB8F3"/></linearGradient><linearGradient id="aU" x1="226.553" x2="166.189" y1="296.117" y2="296.117" gradientUnits="userSpaceOnUse"><stop stop-color="#fff"/><stop offset="1" stop-color="#7AB8F3"/></linearGradient><linearGradient id="aV" x1="225.123" x2="290.69" y1="287.379" y2="287.642" gradientUnits="userSpaceOnUse"><stop stop-color="#fff"/><stop offset="1" stop-color="#7AB8F3"/></linearGradient><linearGradient id="aW" x1="225.138" x2="243.915" y1="335.787" y2="335.862" gradientUnits="userSpaceOnUse"><stop stop-color="#fff"/><stop offset="1" stop-color="#D3C4F3"/></linearGradient><linearGradient id="aX" x1="220.726" x2="235.617" y1="361.144" y2="361.204" gradientUnits="userSpaceOnUse"><stop stop-color="#fff"/><stop offset="1" stop-color="#7AB8F3"/></linearGradient><linearGradient id="aY" x1="248.177" x2="216.292" y1="344.107" y2="344.107" gradientUnits="userSpaceOnUse"><stop stop-color="#00D6FF"/><stop offset=".135" stop-color="#23B8F2"/><stop offset=".738" stop-color="#BC35B9"/><stop offset="1" stop-color="#F900A2"/></linearGradient><linearGradient id="aZ" x1="223.209" x2="234.443" y1="321.253" y2="330.606" gradientUnits="userSpaceOnUse"><stop stop-color="#00D6FF"/><stop offset=".135" stop-color="#23B8F2"/><stop offset=".738" stop-color="#BC35B9"/><stop offset="1" stop-color="#F900A2"/></linearGradient><linearGradient id="ba" x1="206.072" x2="230.498" y1="101.601" y2="119.622" gradientUnits="userSpaceOnUse"><stop stop-color="#C3A7F3"/><stop offset=".089" stop-color="#AC94D7"/><stop offset=".344" stop-color="#70608B"/><stop offset=".571" stop-color="#403750"/><stop offset=".763" stop-color="#1D1924"/><stop offset=".912" stop-color="#08070A"/><stop offset="1"/></linearGradient><linearGradient id="bb" x1="228.702" x2="253.128" y1="185.957" y2="203.977" gradientUnits="userSpaceOnUse"><stop stop-color="#C3A7F3"/><stop offset=".089" stop-color="#AC94D7"/><stop offset=".344" stop-color="#70608B"/><stop offset=".571" stop-color="#403750"/><stop offset=".763" stop-color="#1D1924"/><stop offset=".912" stop-color="#08070A"/><stop offset="1"/></linearGradient><linearGradient id="bc" x1="229" x2="231.389" y1="266.991" y2="81.952" gradientUnits="userSpaceOnUse"><stop stop-color="#00D6FF"/><stop offset=".135" stop-color="#23B8F2"/><stop offset=".738" stop-color="#BC35B9"/><stop offset="1" stop-color="#F900A2"/></linearGradient><linearGradient id="bd" x1="228.635" x2="237.591" y1="213.268" y2="-53.214" gradientUnits="userSpaceOnUse"><stop stop-color="#00D6FF"/><stop offset=".135" stop-color="#23B8F2"/><stop offset=".738" stop-color="#BC35B9"/><stop offset="1" stop-color="#F900A2"/></linearGradient><linearGradient id="be" x1="266.731" x2="495.579" y1="353.178" y2="353.178" gradientUnits="userSpaceOnUse"><stop stop-color="#212576"/><stop offset=".076" stop-color="#1F2270"/><stop offset=".418" stop-color="#181758"/><stop offset=".735" stop-color="#141049"/><stop offset="1" stop-color="#120E44"/></linearGradient><linearGradient id="bf" x1="360.435" x2="424.41" y1="333.789" y2="333.789" gradientUnits="userSpaceOnUse"><stop stop-color="#fff"/><stop offset="1" stop-color="#7AB8F3"/></linearGradient><linearGradient id="bg" x1="506.692" x2="437.851" y1="364.254" y2="364.254" gradientUnits="userSpaceOnUse"><stop stop-color="#fff"/><stop offset="1" stop-color="#7AB8F3"/></linearGradient><linearGradient id="bh" x1="367.191" x2="401.783" y1="307.675" y2="307.675" gradientUnits="userSpaceOnUse"><stop stop-color="#00D6FF"/><stop offset=".135" stop-color="#23B8F2"/><stop offset=".738" stop-color="#BC35B9"/><stop offset="1" stop-color="#F900A2"/></linearGradient><linearGradient id="bi" x1="379.13" x2="480.705" y1="298.688" y2="298.688" gradientUnits="userSpaceOnUse"><stop stop-color="#fff"/><stop offset="1" stop-color="#7AB8F3"/></linearGradient><linearGradient id="bj" x1="385.663" x2="438.375" y1="311.485" y2="311.485" gradientUnits="userSpaceOnUse"><stop stop-color="#00D6FF"/><stop offset=".135" stop-color="#23B8F2"/><stop offset=".738" stop-color="#BC35B9"/><stop offset="1" stop-color="#F900A2"/></linearGradient><linearGradient id="bk" x1="427.256" x2="455.787" y1="307.664" y2="307.664" gradientUnits="userSpaceOnUse"><stop stop-color="#00D6FF"/><stop offset=".135" stop-color="#23B8F2"/><stop offset=".738" stop-color="#BC35B9"/><stop offset="1" stop-color="#F900A2"/></linearGradient><linearGradient id="bl" x1="379.131" x2="365.549" y1="326.986" y2="326.986" gradientUnits="userSpaceOnUse"><stop stop-color="#fff"/><stop offset="1" stop-color="#7AB8F3"/></linearGradient><linearGradient id="bm" x1="333.858" x2="352.35" y1="344.426" y2="344.426" gradientUnits="userSpaceOnUse"><stop stop-color="#fff"/><stop offset="1" stop-color="#7AB8F3"/></linearGradient><linearGradient id="bn" x1="336.325" x2="379.284" y1="317.968" y2="342.332" gradientUnits="userSpaceOnUse"><stop stop-color="#00D6FF"/><stop offset=".135" stop-color="#23B8F2"/><stop offset=".738" stop-color="#BC35B9"/><stop offset="1" stop-color="#F900A2"/></linearGradient><linearGradient id="bo" x1="349.623" x2="376.544" y1="350.278" y2="350.278" gradientUnits="userSpaceOnUse"><stop stop-color="#fff"/><stop offset="1" stop-color="#7AB8F3"/></linearGradient><linearGradient id="bp" x1="439.269" x2="448.515" y1="326.87" y2="326.87" gradientUnits="userSpaceOnUse"><stop stop-color="#fff"/><stop offset="1" stop-color="#7AB8F3"/></linearGradient><linearGradient id="bq" x1="457.515" x2="472.387" y1="344.215" y2="344.215" gradientUnits="userSpaceOnUse"><stop stop-color="#fff"/><stop offset="1" stop-color="#7AB8F3"/></linearGradient><linearGradient id="br" x1="443.778" x2="479.04" y1="315.84" y2="349.182" gradientUnits="userSpaceOnUse"><stop stop-color="#00D6FF"/><stop offset=".135" stop-color="#23B8F2"/><stop offset=".738" stop-color="#BC35B9"/><stop offset="1" stop-color="#F900A2"/></linearGradient><linearGradient id="bs" x1="439.718" x2="461.093" y1="350.29" y2="350.29" gradientUnits="userSpaceOnUse"><stop stop-color="#fff"/><stop offset="1" stop-color="#7AB8F3"/></linearGradient><linearGradient id="bt" x1="367.417" x2="487.425" y1="356.712" y2="356.712" gradientUnits="userSpaceOnUse"><stop stop-color="#fff"/><stop offset="1" stop-color="#7AB8F3"/></linearGradient><linearGradient id="bu" x1="366.065" x2="447.83" y1="367.348" y2="367.348" gradientUnits="userSpaceOnUse"><stop stop-color="#00D6FF"/><stop offset=".135" stop-color="#23B8F2"/><stop offset=".738" stop-color="#BC35B9"/><stop offset="1" stop-color="#F900A2"/></linearGradient><linearGradient id="bv" x1="155.158" x2="27.801" y1="458.177" y2="458.177" gradientUnits="userSpaceOnUse"><stop stop-color="#212576"/><stop offset=".076" stop-color="#1F2270"/><stop offset=".418" stop-color="#181758"/><stop offset=".735" stop-color="#141049"/><stop offset="1" stop-color="#120E44"/></linearGradient><linearGradient id="bw" x1="31.88" x2="82.787" y1="329.847" y2="329.847" gradientUnits="userSpaceOnUse"><stop stop-color="#fff"/><stop offset="1" stop-color="#7AB8F3"/></linearGradient><linearGradient id="bx" x1="23.62" x2="52.157" y1="382.824" y2="382.824" gradientUnits="userSpaceOnUse"><stop stop-color="#00D6FF"/><stop offset=".135" stop-color="#23B8F2"/><stop offset=".738" stop-color="#BC35B9"/><stop offset="1" stop-color="#F900A2"/></linearGradient><linearGradient id="by" x1="38.638" x2="71.978" y1="382.824" y2="382.824" gradientUnits="userSpaceOnUse"><stop stop-color="#00D6FF"/><stop offset=".135" stop-color="#23B8F2"/><stop offset=".738" stop-color="#BC35B9"/><stop offset="1" stop-color="#F900A2"/></linearGradient><linearGradient id="bz" x1="60.861" x2="101.415" y1="375.895" y2="375.895" gradientUnits="userSpaceOnUse"><stop stop-color="#00D6FF"/><stop offset=".135" stop-color="#23B8F2"/><stop offset=".738" stop-color="#BC35B9"/><stop offset="1" stop-color="#F900A2"/></linearGradient><linearGradient id="bA" x1="54.554" x2="77.11" y1="414.595" y2="414.595" gradientUnits="userSpaceOnUse"><stop stop-color="#fff"/><stop offset="1" stop-color="#7AB8F3"/></linearGradient><linearGradient id="bB" x1="74.977" x2="91.497" y1="414.596" y2="414.596" gradientUnits="userSpaceOnUse"><stop stop-color="#fff"/><stop offset="1" stop-color="#7AB8F3"/></linearGradient><linearGradient id="bC" x1="94.497" x2="135.941" y1="375.234" y2="375.234" gradientUnits="userSpaceOnUse"><stop stop-color="#fff"/><stop offset="1" stop-color="#7AB8F3"/></linearGradient><linearGradient id="bD" x1="83.984" x2="109.527" y1="423.012" y2="423.012" gradientUnits="userSpaceOnUse"><stop stop-color="#00D6FF"/><stop offset=".135" stop-color="#23B8F2"/><stop offset=".738" stop-color="#BC35B9"/><stop offset="1" stop-color="#F900A2"/></linearGradient><linearGradient id="bE" x1="98.1" x2="139.546" y1="423.012" y2="423.012" gradientUnits="userSpaceOnUse"><stop stop-color="#00D6FF"/><stop offset=".135" stop-color="#23B8F2"/><stop offset=".738" stop-color="#BC35B9"/><stop offset="1" stop-color="#F900A2"/></linearGradient><linearGradient id="bF" x1="120.024" x2="166.278" y1="415.847" y2="415.847" gradientUnits="userSpaceOnUse"><stop stop-color="#00D6FF"/><stop offset=".135" stop-color="#23B8F2"/><stop offset=".738" stop-color="#BC35B9"/><stop offset="1" stop-color="#F900A2"/></linearGradient><linearGradient id="bG" x1="118.522" x2="139.598" y1="452.065" y2="452.065" gradientUnits="userSpaceOnUse"><stop stop-color="#fff"/><stop offset="1" stop-color="#7AB8F3"/></linearGradient><linearGradient id="bH" x1="135.941" x2="157.883" y1="452.065" y2="452.065" gradientUnits="userSpaceOnUse"><stop stop-color="#fff"/><stop offset="1" stop-color="#7AB8F3"/></linearGradient><linearGradient id="bI" x1="192.026" x2="212.205" y1="473.149" y2="509.131" gradientUnits="userSpaceOnUse"><stop stop-color="#fff"/><stop offset="1" stop-color="#7AB8F3"/></linearGradient><linearGradient id="bJ" x1="186.678" x2="209.543" y1="479.072" y2="523.592" gradientUnits="userSpaceOnUse"><stop stop-color="#00D6FF"/><stop offset=".135" stop-color="#23B8F2"/><stop offset=".738" stop-color="#BC35B9"/><stop offset="1" stop-color="#F900A2"/></linearGradient><linearGradient id="bK" x1="373.883" x2="405.272" y1="432.338" y2="487.662" gradientUnits="userSpaceOnUse"><stop stop-color="#00D6FF"/><stop offset=".135" stop-color="#23B8F2"/><stop offset=".738" stop-color="#BC35B9"/><stop offset="1" stop-color="#F900A2"/></linearGradient><linearGradient id="bL" x1="387.804" x2="396.774" y1="439.874" y2="454.495" gradientUnits="userSpaceOnUse"><stop stop-color="#fff"/><stop offset="1" stop-color="#7AB8F3"/></linearGradient><linearGradient id="bM" x1="37.721" x2="92.229" y1="206.071" y2="206.071" gradientUnits="userSpaceOnUse"><stop stop-color="#00D6FF"/><stop offset=".135" stop-color="#23B8F2"/><stop offset=".738" stop-color="#BC35B9"/><stop offset="1" stop-color="#F900A2"/></linearGradient><linearGradient id="bN" x1="39.974" x2="58.894" y1="214.962" y2="214.962" gradientUnits="userSpaceOnUse"><stop stop-color="#4743B7"/><stop offset=".077" stop-color="#493EB5"/><stop offset="1" stop-color="#66019C"/></linearGradient><linearGradient id="bO" x1="334.152" x2="387.312" y1="211.291" y2="211.291" gradientUnits="userSpaceOnUse"><stop stop-color="#00D6FF"/><stop offset=".135" stop-color="#23B8F2"/><stop offset=".738" stop-color="#BC35B9"/><stop offset="1" stop-color="#F900A2"/></linearGradient><linearGradient id="bP" x1="343.163" x2="390.473" y1="202.917" y2="202.917" gradientUnits="userSpaceOnUse"><stop stop-color="#fff"/><stop offset="1" stop-color="#7AB8F3"/></linearGradient><clipPath id="a"><path fill="#fff" d="M511 0H0v529h511z"/></clipPath></defs></svg>